<svg width="120" height="117" viewBox="0 0 120 117" fill="none" xmlns="http://www.w3.org/2000/svg">
<g clip-path="url(#clip0_57_63)">
<path d="M120 58.5C120 26.1913 93.1371 0 60 0C26.8629 0 0 26.1913 0 58.5C0 90.8087 26.8629 117 60 117C93.1371 117 120 90.8087 120 58.5Z" fill="#FAFF00"/>
<path d="M33.75 76.7812C38.9277 76.7812 43.125 72.6889 43.125 67.6406C43.125 62.5924 38.9277 58.5 33.75 58.5C28.5723 58.5 24.375 62.5924 24.375 67.6406C24.375 72.6889 28.5723 76.7812 33.75 76.7812Z" fill="#F0BD70"/>
<path d="M33.75 74.9531H65.625V120.419C65.625 120.419 58.7944 124.312 49.6875 124.312C40.5806 124.312 33.75 117.956 33.75 117.956V74.9531Z" fill="#F0BD70"/>
<path d="M65.6248 98.4774C65.6248 108.814 63.971 107.834 53.2179 107.834C42.4648 107.834 37.5035 99.4555 37.5035 89.1193C37.5035 78.783 37.0948 69.4688 45.7723 69.4688C70.3123 70.3828 65.6248 88.1412 65.6248 98.4774Z" fill="#E9B05B"/>
<path d="M86.0361 65.9953C86.0361 82.3058 92.9473 102.362 62.8123 102.362C32.6773 102.362 32.6773 82.3058 32.6773 65.9953C28.1248 46.6172 29.0623 23.7656 59.9998 23.7656C90.9373 23.7656 86.0361 49.6829 86.0361 65.9953Z" fill="#FFCB7E"/>
<path d="M71.25 74.9531H69.375C68.3395 74.9531 67.5 75.7716 67.5 76.7812C67.5 77.7909 68.3395 78.6094 69.375 78.6094H71.25C72.2855 78.6094 73.125 77.7909 73.125 76.7812C73.125 75.7716 72.2855 74.9531 71.25 74.9531Z" fill="#F0BD70"/>
<path d="M71.25 109.688H30C20.6802 109.688 13.125 117.054 13.125 126.141V135.281C13.125 144.368 20.6802 151.734 30 151.734H71.25C80.5698 151.734 88.125 144.368 88.125 135.281V126.141C88.125 117.054 80.5698 109.688 71.25 109.688Z" fill="#E05A33"/>
<path fill-rule="evenodd" clip-rule="evenodd" d="M86.1901 59.383C87.7464 58.5267 88.9379 57.1566 89.5498 55.5196C90.1617 53.8826 90.1538 52.0863 89.5276 50.4544C91.2392 49.6499 92.5739 48.2419 93.2618 46.515C93.9498 44.7881 93.9398 42.8709 93.2339 41.1509C92.528 39.4308 91.1788 38.0361 89.4589 37.2486C87.739 36.461 85.7766 36.3393 83.9683 36.908C86.6251 43.6246 86.4301 51.9316 86.1901 59.383Z" fill="#47280B"/>
<path fill-rule="evenodd" clip-rule="evenodd" d="M68.0569 41.6081C66.3482 43.0726 64.15 43.8787 61.875 43.875C59.8001 43.8783 57.7833 43.2073 56.1431 41.9683C54.9261 43.1545 53.481 44.095 51.8906 44.7358C50.3003 45.3767 48.5959 45.7054 46.875 45.7031C45.5757 45.704 44.2835 45.5167 43.0406 45.1474C42.5519 45.6689 41.9886 46.119 41.3681 46.4837C42.1063 47.3401 42.6331 48.3501 42.908 49.4361C43.1829 50.5221 43.1986 51.6551 42.954 52.7479C42.7093 53.8408 42.2107 54.8644 41.4966 55.7399C40.7826 56.6154 39.872 57.3195 38.835 57.798C39.1445 58.2113 39.3291 58.7009 39.3681 59.2112C39.4071 59.7215 39.2988 60.2323 39.0555 60.6858C38.8123 61.1393 38.4437 61.5173 37.9915 61.7772C37.5393 62.037 37.0216 62.1683 36.4969 62.1562C35.5777 63.7156 34.1014 64.8899 32.3501 65.4548C30.5989 66.0198 28.6955 65.9356 27.0039 65.2185C25.3122 64.5014 23.951 63.2016 23.1803 61.5676C22.4096 59.9336 22.2836 58.08 22.8263 56.3611C22.1276 55.6829 21.5734 54.8766 21.1956 53.9887C20.8178 53.1008 20.6239 52.1488 20.625 51.1875C20.625 49.1656 21.4669 47.3356 22.8263 46.0139C22.4641 44.859 22.4009 43.6347 22.6424 42.4503C22.8839 41.2658 23.4224 40.1581 24.21 39.2261C23.2346 37.5503 22.6597 35.6814 22.5283 33.7589C22.3968 31.8363 22.7121 29.9096 23.4508 28.1224C24.1894 26.3352 25.3322 24.7336 26.7941 23.437C28.256 22.1404 29.9992 21.1823 31.8938 20.634C31.7963 19.3202 32.0646 18.0052 32.6704 16.8278C33.2762 15.6504 34.1969 14.6544 35.3353 13.945C36.4737 13.2356 37.7875 12.8393 39.1378 12.7977C40.4881 12.7562 41.8587 12.2192 43.0406 12.8572C44.1925 10.9116 45.8159 10.1479 47.8115 9.02505C49.8071 7.90215 52.0709 7.31149 54.375 7.3125C56.9494 7.3125 59.3513 8.03461 61.3781 9.28504C62.7704 7.82275 64.5178 6.72568 66.4592 6.09497C68.4007 5.46426 70.4738 5.3202 72.4874 5.67606C74.501 6.03192 76.3903 6.87626 77.9812 8.13124C79.5721 9.38623 80.8134 11.0115 81.5906 12.8572C82.5825 12.9826 83.5387 13.3001 84.4029 13.7911C85.2671 14.2822 86.0218 14.9368 86.6226 15.7164C87.2234 16.4961 87.6582 17.385 87.9014 18.331C88.1446 19.2769 88.1913 20.2607 88.0388 21.2245C91.5169 23.7364 93.75 27.6266 93.75 31.9922C93.75 39.5643 87.0338 45.7031 78.75 45.7031C74.5631 45.7031 70.7775 44.1346 68.0569 41.6081Z" fill="#47280B"/>
<path d="M54.2417 84.0938C54.2417 83.6089 54.4392 83.1439 54.7909 82.8011C55.1425 82.4582 55.6194 82.2656 56.1167 82.2656H73.2598C73.7571 82.2656 74.234 82.4582 74.5856 82.8011C74.9373 83.1439 75.1348 83.6089 75.1348 84.0938C75.1348 86.518 74.1471 88.8429 72.3889 90.5571C70.6308 92.2713 68.2462 93.2344 65.7598 93.2344H63.6167C61.1303 93.2344 58.7457 92.2713 56.9876 90.5571C55.2294 88.8429 54.2417 86.518 54.2417 84.0938Z" fill="#66253C"/>
<path fill-rule="evenodd" clip-rule="evenodd" d="M68.9158 92.7043C67.9029 93.0565 66.8354 93.2358 65.7601 93.2344H63.617C61.1955 93.2344 58.868 92.3209 57.1218 90.6852C55.3757 89.0495 54.3464 86.8185 54.2495 84.4594C55.682 83.9366 57.8083 83.9969 59.9064 84.0572C60.5739 84.0755 61.2376 84.0938 61.8751 84.0938C66.0189 84.0938 69.3751 86.9585 69.3751 90.4922C69.3751 91.2692 69.212 92.0151 68.9158 92.7043Z" fill="#B03E67"/>
<path d="M56.25 82.2656H75V84.0938C75 84.5786 74.8025 85.0436 74.4508 85.3864C74.0992 85.7293 73.6223 85.9219 73.125 85.9219H58.125C57.6277 85.9219 57.1508 85.7293 56.7992 85.3864C56.4475 85.0436 56.25 84.5786 56.25 84.0938V82.2656Z" fill="white"/>
<path d="M61.875 68.5547C61.875 67.0402 60.6158 65.8125 59.0625 65.8125C57.5092 65.8125 56.25 67.0402 56.25 68.5547V70.3828C56.25 71.8973 57.5092 73.125 59.0625 73.125C60.6158 73.125 61.875 71.8973 61.875 70.3828V68.5547Z" fill="#1B0B47"/>
<path d="M80.625 68.5547C80.625 67.0402 79.3658 65.8125 77.8125 65.8125C76.2592 65.8125 75 67.0402 75 68.5547V70.3828C75 71.8973 76.2592 73.125 77.8125 73.125C79.3658 73.125 80.625 71.8973 80.625 70.3828V68.5547Z" fill="#1B0B47"/>
<path d="M51.5625 71.2969H47.8125C46.2592 71.2969 45 72.5246 45 74.0391C45 75.5536 46.2592 76.7813 47.8125 76.7813H51.5625C53.1158 76.7813 54.375 75.5536 54.375 74.0391C54.375 72.5246 53.1158 71.2969 51.5625 71.2969Z" fill="#FF859B"/>
<path d="M85.3125 71.2969H83.4375C81.8842 71.2969 80.625 72.5246 80.625 74.0391C80.625 75.5536 81.8842 76.7813 83.4375 76.7813H85.3125C86.8658 76.7813 88.125 75.5536 88.125 74.0391C88.125 72.5246 86.8658 71.2969 85.3125 71.2969Z" fill="#FF859B"/>
</g>
<defs>
<clipPath id="clip0_57_63">
<rect width="120" height="117" rx="58.5" fill="white"/>
</clipPath>
</defs>
</svg>
