<svg width="119" height="117" viewBox="0 0 119 117" fill="none" xmlns="http://www.w3.org/2000/svg">
<g clip-path="url(#clip0_57_85)">
<path d="M119 58.5C119 26.1913 92.3609 0 59.5 0C26.6391 0 0 26.1913 0 58.5C0 90.8087 26.6391 117 59.5 117C92.3609 117 119 90.8087 119 58.5Z" fill="#70E0BF"/>
<path d="M33.4688 76.7812C38.6033 76.7812 42.7656 72.6889 42.7656 67.6406C42.7656 62.5924 38.6033 58.5 33.4688 58.5C28.3342 58.5 24.1719 62.5924 24.1719 67.6406C24.1719 72.6889 28.3342 76.7812 33.4688 76.7812Z" fill="#F0BD70"/>
<path d="M33.4688 74.9531H65.0781V120.419C65.0781 120.419 58.3044 124.312 49.2734 124.312C40.2425 124.312 33.4688 117.956 33.4688 117.956V74.9531Z" fill="#F0BD70"/>
<path d="M64.7264 97.0954C64.7264 106.94 63.1088 106.007 52.5791 106.007C42.0495 106.007 37.1909 98.0277 37.1909 88.1833C37.1909 78.3406 36.7912 69.4688 45.2885 69.4688C69.3172 70.3389 64.7264 87.2509 64.7264 97.0954Z" fill="#E9B05B"/>
<path d="M85.3193 65.9953C85.3193 82.3058 82.7422 102.362 62.2891 102.362C41.836 102.362 32.4052 82.3058 32.4052 65.9953C27.8906 46.6172 28.8203 23.7656 59.5 23.7656C90.1797 23.7656 85.3193 49.6829 85.3193 65.9953Z" fill="#FFCB7E"/>
<path d="M70.6562 74.9531H68.7969C67.77 74.9531 66.9375 75.7716 66.9375 76.7812C66.9375 77.7909 67.77 78.6094 68.7969 78.6094H70.6562C71.6832 78.6094 72.5156 77.7909 72.5156 76.7812C72.5156 75.7716 71.6832 74.9531 70.6562 74.9531Z" fill="#F0BD70"/>
<path d="M70.6562 109.688H29.75C20.5079 109.688 13.0156 117.054 13.0156 126.141V135.281C13.0156 144.368 20.5079 151.734 29.75 151.734H70.6562C79.8984 151.734 87.3906 144.368 87.3906 135.281V126.141C87.3906 117.054 79.8984 109.688 70.6562 109.688Z" fill="#FF4DD8"/>
<path d="M31.6094 106.031H66.9375V111.516C66.9375 111.516 57.6406 113.344 49.2734 113.344C40.9062 113.344 31.6094 111.516 31.6094 111.516V106.031Z" fill="#FF4DD8"/>
<path d="M31.6094 106.031H66.9375V109.688C66.9375 109.688 61.3594 112.43 49.2734 112.43C37.1875 112.43 31.6094 109.688 31.6094 109.688V106.031Z" fill="#D2499B"/>
<path d="M30.6797 107.859C30.6797 106.89 31.0715 105.96 31.7689 105.274C32.4663 104.588 33.4122 104.203 34.3984 104.203H64.1484C65.1347 104.203 66.0806 104.588 66.778 105.274C67.4754 105.96 67.8672 106.89 67.8672 107.859C67.8672 107.859 58.5703 109.688 49.2734 109.688C39.9766 109.688 30.6797 107.859 30.6797 107.859Z" fill="#FF4DD8"/>
<path d="M40.9064 51.1875C39.7368 56.6719 42.7658 63.9496 42.7658 65.3427C42.7658 66.7357 35.4566 70.8727 33.4689 72.2109C31.4812 73.5491 30.6798 59.4141 30.6798 59.4141C25.1017 59.4141 24.172 69.4688 24.172 69.4688C24.172 69.4688 19.9996 68.1159 18.5939 61.2422C17.6456 56.5987 19.1498 46.4545 19.5236 43.875C20.4533 37.4766 21.383 22.8516 33.4689 15.5391C45.5548 8.22656 76.2345 8.22656 83.672 10.0547C102.069 14.5756 104.53 39.2791 98.547 47.5312C89.2501 57.5859 63.2189 45.7031 54.8517 45.7031C46.4845 45.7031 42.0778 45.7031 40.9064 51.1875Z" fill="#AD3A20"/>
<path d="M53.79 84.0938C53.79 83.6089 53.9859 83.1439 54.3346 82.8011C54.6833 82.4582 55.1563 82.2656 55.6494 82.2656H72.6497C73.1428 82.2656 73.6158 82.4582 73.9645 82.8011C74.3132 83.1439 74.509 83.6089 74.509 84.0938C74.509 86.518 73.5296 88.8429 71.7861 90.5571C70.0426 92.2713 67.6779 93.2344 65.2122 93.2344H63.0869C60.6212 93.2344 58.2565 92.2713 56.513 90.5571C54.7695 88.8429 53.79 86.518 53.79 84.0938Z" fill="#66253C"/>
<path fill-rule="evenodd" clip-rule="evenodd" d="M68.3414 92.7043C67.337 93.0564 66.2784 93.2358 65.2121 93.2344H63.0868C60.6855 93.2344 58.3773 92.3209 56.6457 90.6852C54.9141 89.0495 53.8934 86.8185 53.7974 84.4594C55.2179 83.9366 57.3265 83.9969 59.4071 84.0572C60.069 84.0755 60.7273 84.0938 61.3594 84.0938C65.4687 84.0938 68.7969 86.9585 68.7969 90.4922C68.7969 91.2692 68.6352 92.0151 68.3414 92.7043Z" fill="#B03E67"/>
<path d="M55.7812 82.2656H74.375V84.0938C74.375 84.5786 74.1791 85.0436 73.8304 85.3864C73.4817 85.7293 73.0088 85.9219 72.5156 85.9219H57.6406C57.1475 85.9219 56.6745 85.7293 56.3258 85.3864C55.9771 85.0436 55.7812 84.5786 55.7812 84.0938V82.2656Z" fill="white"/>
<path d="M59.5 82.8141C59.5 82.6686 59.5588 82.5291 59.6634 82.4263C59.768 82.3234 59.9099 82.2656 60.0578 82.2656H62.6609C62.8089 82.2656 62.9508 82.3234 63.0554 82.4263C63.16 82.5291 63.2188 82.6686 63.2188 82.8141V87.2016C63.2188 87.347 63.16 87.4865 63.0554 87.5894C62.9508 87.6922 62.8089 87.75 62.6609 87.75H60.0578C59.9099 87.75 59.768 87.6922 59.6634 87.5894C59.5588 87.4865 59.5 87.347 59.5 87.2016V82.8141Z" fill="#B03E67"/>
<path d="M79.9531 68.5547C79.9531 69.282 79.6593 69.9794 79.1362 70.4937C78.6132 71.008 77.9038 71.2969 77.1641 71.2969C76.4244 71.2969 75.7149 71.008 75.1919 70.4937C74.6688 69.9794 74.375 69.282 74.375 68.5547V66.3116C74.375 66.0374 74.6018 65.8125 74.8826 65.8125H79.4455C79.7244 65.8125 79.9531 66.0355 79.9531 66.3116V68.5547ZM61.3594 68.5547C61.3594 69.282 61.0655 69.9794 60.5425 70.4937C60.0194 71.008 59.31 71.2969 58.5703 71.2969C57.8306 71.2969 57.1212 71.008 56.5981 70.4937C56.0751 69.9794 55.7812 69.282 55.7812 68.5547V66.3116C55.7812 66.0374 56.0081 65.8125 56.2889 65.8125H60.8518C61.1307 65.8125 61.3594 66.0355 61.3594 66.3116V68.5547Z" fill="#1B0B47"/>
<path d="M73.4453 66.7266H80.8828M54.8516 66.7266H62.2891H54.8516Z" stroke="#1B0B47" stroke-linecap="round"/>
<path d="M52.0625 84.0938C52.0625 82.6392 52.6502 81.2442 53.6963 80.2157C54.7424 79.1872 56.1612 78.6094 57.6406 78.6094H74.375C75.8544 78.6094 77.2732 79.1872 78.3193 80.2157C79.3654 81.2442 79.9531 82.6392 79.9531 84.0938H52.0625Z" fill="#AD3A20"/>
</g>
<defs>
<clipPath id="clip0_57_85">
<rect width="119" height="117" rx="58.5" fill="white"/>
</clipPath>
</defs>
</svg>
