<svg width="119" height="117" viewBox="0 0 119 117" fill="none" xmlns="http://www.w3.org/2000/svg">
<g clip-path="url(#clip0_57_41)">
<path d="M119 58.5C119 26.1913 92.3609 0 59.5 0C26.6391 0 0 26.1913 0 58.5C0 90.8087 26.6391 117 59.5 117C92.3609 117 119 90.8087 119 58.5Z" fill="#F16063"/>
<path d="M33.4688 76.7812C38.6033 76.7812 42.7656 72.6889 42.7656 67.6406C42.7656 62.5924 38.6033 58.5 33.4688 58.5C28.3342 58.5 24.1719 62.5924 24.1719 67.6406C24.1719 72.6889 28.3342 76.7812 33.4688 76.7812Z" fill="#EAC0B3"/>
<path d="M33.4688 74.9531H65.0781V120.419C65.0781 120.419 58.3044 124.312 49.2734 124.312C40.2425 124.312 33.4688 117.956 33.4688 117.956V74.9531Z" fill="#EAC0B3"/>
<path d="M64.7269 97.0954C64.7269 106.94 63.1093 106.007 52.5796 106.007C42.05 106.007 37.1914 98.0277 37.1914 88.1833C37.1914 78.3406 36.7917 69.4688 45.289 69.4688C69.3177 70.3389 64.7269 87.2509 64.7269 97.0954Z" fill="#C99688"/>
<path d="M85.3193 65.9953C85.3193 82.3058 82.7422 102.362 62.2891 102.362C41.836 102.362 32.4052 82.3058 32.4052 65.9953C27.8906 46.6172 28.8203 23.7656 59.5 23.7656C90.1797 23.7656 85.3193 49.6829 85.3193 65.9953Z" fill="#F5D0C5"/>
<path d="M70.6562 74.9531H68.7969C67.77 74.9531 66.9375 75.7716 66.9375 76.7812C66.9375 77.7909 67.77 78.6094 68.7969 78.6094H70.6562C71.6832 78.6094 72.5156 77.7909 72.5156 76.7812C72.5156 75.7716 71.6832 74.9531 70.6562 74.9531Z" fill="#EAC0B3"/>
<path d="M70.6562 109.688H29.75C20.5079 109.688 13.0156 117.054 13.0156 126.141V135.281C13.0156 144.368 20.5079 151.734 29.75 151.734H70.6562C79.8984 151.734 87.3906 144.368 87.3906 135.281V126.141C87.3906 117.054 79.8984 109.688 70.6562 109.688Z" fill="#FAFF00"/>
<path d="M31.6094 106.031H66.9375V111.516C66.9375 111.516 57.6406 113.344 49.2734 113.344C40.9062 113.344 31.6094 111.516 31.6094 111.516V106.031Z" fill="#FAFF00"/>
<path d="M31.6094 106.031H66.9375V109.688C66.9375 109.688 61.3594 112.43 49.2734 112.43C37.1875 112.43 31.6094 109.688 31.6094 109.688V106.031Z" fill="#FBBC05"/>
<path d="M30.6797 107.859C30.6797 106.89 31.0715 105.96 31.7689 105.274C32.4663 104.588 33.4122 104.203 34.3984 104.203H64.1484C65.1347 104.203 66.0806 104.588 66.778 105.274C67.4754 105.96 67.8672 106.89 67.8672 107.859C67.8672 107.859 58.5703 109.688 49.2734 109.688C39.9766 109.688 30.6797 107.859 30.6797 107.859Z" fill="#FAFF00"/>
<path fill-rule="evenodd" clip-rule="evenodd" d="M89.25 45.7031C89.2491 37.0556 85.786 28.756 79.6098 22.5993C73.4335 16.4426 65.0406 12.9237 56.2461 12.8036C47.4517 12.6835 38.9626 15.9718 32.6148 21.9575C26.267 27.9431 22.5708 36.1449 22.3255 44.7891H22.3125V118.828H42.7656V63.2476C47.3862 62.3738 55.3722 60.4506 65.4649 56.3812C75.6245 52.2844 81.9631 48.4124 85.3007 46.076C85.7507 50.6902 85.5945 55.5092 85.4494 59.9881C85.3825 62.0831 85.3174 64.1014 85.3174 65.9935C85.3174 66.7393 85.3025 67.4889 85.2709 68.2402C85.7005 68.1068 86.1021 67.9605 86.4591 67.8015C89.2481 66.5511 89.2481 64.882 89.2481 64.882V45.7031H89.25ZM27.8906 60.3281C26.5555 61.3101 25.5148 62.6282 24.8784 64.1434C24.0889 66.0183 23.9563 68.0983 24.5017 70.0554C25.0471 72.0126 26.2393 73.7357 27.8906 74.9531V60.3281Z" fill="#1B0B47"/>
<path d="M53.79 84.0938C53.79 83.6089 53.9859 83.1439 54.3346 82.8011C54.6833 82.4582 55.1563 82.2656 55.6494 82.2656H72.6497C73.1428 82.2656 73.6158 82.4582 73.9645 82.8011C74.3132 83.1439 74.509 83.6089 74.509 84.0938C74.509 86.518 73.5296 88.8429 71.7861 90.5571C70.0426 92.2713 67.6779 93.2344 65.2122 93.2344H63.0869C60.6212 93.2344 58.2565 92.2713 56.513 90.5571C54.7695 88.8429 53.79 86.518 53.79 84.0938Z" fill="#66253C"/>
<path fill-rule="evenodd" clip-rule="evenodd" d="M68.3414 92.7043C67.337 93.0564 66.2784 93.2358 65.2121 93.2344H63.0868C60.6855 93.2344 58.3773 92.3209 56.6457 90.6852C54.9141 89.0495 53.8934 86.8185 53.7974 84.4594C55.2179 83.9366 57.3265 83.9969 59.4071 84.0572C60.069 84.0755 60.7273 84.0938 61.3594 84.0938C65.4687 84.0938 68.7969 86.9585 68.7969 90.4922C68.7969 91.2692 68.6352 92.0151 68.3414 92.7043Z" fill="#B03E67"/>
<path d="M55.7812 82.2656H74.375V84.0938C74.375 84.5786 74.1791 85.0436 73.8304 85.3864C73.4817 85.7293 73.0088 85.9219 72.5156 85.9219H57.6406C57.1475 85.9219 56.6745 85.7293 56.3258 85.3864C55.9771 85.0436 55.7812 84.5786 55.7812 84.0938V82.2656Z" fill="white"/>
<path d="M61.3594 68.5547C61.3594 67.0402 60.1107 65.8125 58.5703 65.8125C57.03 65.8125 55.7812 67.0402 55.7812 68.5547V70.3828C55.7812 71.8973 57.03 73.125 58.5703 73.125C60.1107 73.125 61.3594 71.8973 61.3594 70.3828V68.5547Z" fill="#1B0B47"/>
<path d="M79.9531 68.5547C79.9531 67.0402 78.7044 65.8125 77.1641 65.8125C75.6237 65.8125 74.375 67.0402 74.375 68.5547V70.3828C74.375 71.8973 75.6237 73.125 77.1641 73.125C78.7044 73.125 79.9531 71.8973 79.9531 70.3828V68.5547Z" fill="#1B0B47"/>
</g>
<defs>
<clipPath id="clip0_57_41">
<rect width="119" height="117" rx="58.5" fill="white"/>
</clipPath>
</defs>
</svg>
