<svg width="119" height="117" viewBox="0 0 119 117" fill="none" xmlns="http://www.w3.org/2000/svg">
<g clip-path="url(#clip0_57_109)">
<path d="M119 58.5C119 26.1913 92.3609 0 59.5 0C26.6391 0 0 26.1913 0 58.5C0 90.8087 26.6391 117 59.5 117C92.3609 117 119 90.8087 119 58.5Z" fill="#FFE4DC"/>
<path d="M33.4688 76.7812C38.6033 76.7812 42.7656 72.6889 42.7656 67.6406C42.7656 62.5924 38.6033 58.5 33.4688 58.5C28.3342 58.5 24.1719 62.5924 24.1719 67.6406C24.1719 72.6889 28.3342 76.7812 33.4688 76.7812Z" fill="#836055"/>
<path d="M33.4688 74.9531H65.0781V120.419C65.0781 120.419 58.3044 124.312 49.2734 124.312C40.2425 124.312 33.4688 117.956 33.4688 117.956V74.9531Z" fill="#836055"/>
<path d="M65.0781 98.4775C65.0781 108.814 58.5703 109.688 52.7746 107.834C46.9808 105.984 35.3281 89.8597 35.3281 79.5235C35.3281 69.1872 36.7859 69.4688 45.3929 69.4688C69.7266 70.3828 65.0781 88.1412 65.0781 98.4775Z" fill="#553329"/>
<path d="M85.3193 65.9953C85.3193 82.3058 78.0901 100.547 66.0041 103.289C48.3401 101.461 32.4052 82.3058 32.4052 65.9953C27.8906 46.6172 28.8203 23.7656 59.5 23.7656C90.1797 23.7656 85.3193 49.6829 85.3193 65.9953Z" fill="#836055"/>
<path d="M70.6562 74.9531H68.7969C67.77 74.9531 66.9375 75.7716 66.9375 76.7812C66.9375 77.7909 67.77 78.6094 68.7969 78.6094H70.6562C71.6832 78.6094 72.5156 77.7909 72.5156 76.7812C72.5156 75.7716 71.6832 74.9531 70.6562 74.9531Z" fill="#68463C"/>
<path d="M70.6562 109.688H29.75C20.5079 109.688 13.0156 117.054 13.0156 126.141V135.281C13.0156 144.368 20.5079 151.734 29.75 151.734H70.6562C79.8984 151.734 87.3906 144.368 87.3906 135.281V126.141C87.3906 117.054 79.8984 109.688 70.6562 109.688Z" fill="#E05A33"/>
<path d="M-0.00196218 18.2776C14.8675 3.6599 24.1718 23.7638 24.1718 23.7638L20.4493 38.3888C20.4493 38.3888 16.7306 42.9591 20.4493 56.67C24.1681 70.381 15.8009 77.6935 15.8009 77.6935C15.8009 77.6935 9.29305 82.2656 3.71493 78.6094C-1.8632 74.9531 -2.60137 71.4394 -1.8632 64.8984C-0.933509 56.6719 1.85555 59.4104 1.85555 51.1838C1.85555 42.9573 -14.8732 32.8953 -0.00382137 18.2776H-0.00196218Z" fill="#1B0B47"/>
<path d="M24.2273 24.0964L34.4687 28.451L27.8271 43.5513L17.5875 39.2004C17.5875 39.2004 15.8025 35.6484 18.5915 30.1658C21.375 24.6814 24.2292 24.0964 24.2292 24.0964H24.2273Z" fill="#FF6C98"/>
<path fill-rule="evenodd" clip-rule="evenodd" d="M33.4685 74.9531L31.0085 58.8236C28.8361 59.4075 26.9531 60.747 25.7095 62.593C24.4658 64.4391 23.946 66.6662 24.2466 68.8607C24.5472 71.0552 25.6478 73.0678 27.3439 74.5246C29.04 75.9813 31.2163 76.7832 33.4685 76.7813V91.9547C30.5211 89.3839 27.9644 86.4102 25.8767 83.1249C22.7157 78.1816 20.5068 72.5144 19.4023 66.5017C18.2985 60.4724 18.3237 54.2957 19.4767 48.2753C20.6295 42.2736 22.8849 36.6302 26.0886 31.7216C29.2905 26.8149 33.3681 22.7583 38.0444 19.8279C42.7189 16.8955 47.8842 15.157 53.1927 14.7292C54.3479 14.6363 55.5075 14.6058 56.6661 14.6378C61.6117 14.5092 66.5352 15.332 71.1599 17.0601C75.4457 18.6688 79.3411 21.0253 82.6211 23.996C85.8609 26.9111 88.4663 30.4416 90.2798 34.3742C91.6591 37.381 92.5236 40.5912 92.8383 43.875H92.9685V51.7104C92.9685 51.7104 92.3568 51.9882 91.1128 52.3795V67.8966C91.1128 67.8966 91.1128 70.4633 88.3238 72.3865C87.3569 73.0537 86.0591 73.5656 84.7724 73.9513C85.137 71.3138 85.3215 68.6553 85.3246 65.9935C85.3246 64.1032 85.3897 62.0831 85.4566 59.9899C85.5236 57.9461 85.5924 55.831 85.6054 53.6994C82.1618 54.3191 77.4855 54.8438 71.515 54.8438C56.9226 54.8438 48.3435 51.7104 48.3435 51.7104V49.8841C47.0791 51.8292 45.7106 54.1802 44.6247 56.6719C43.2302 59.8711 43.2302 63.1508 43.2302 65.9058C43.2302 68.6626 43.2302 70.8965 41.8357 72.0026C39.0466 74.2146 33.4685 74.9531 33.4685 74.9531Z" fill="#1B0B47"/>
<path d="M61.3594 68.5547C61.3594 67.0402 60.1107 65.8125 58.5703 65.8125C57.03 65.8125 55.7812 67.0402 55.7812 68.5547V70.3828C55.7812 71.8973 57.03 73.125 58.5703 73.125C60.1107 73.125 61.3594 71.8973 61.3594 70.3828V68.5547Z" fill="#1B0B47"/>
<path d="M79.9531 68.5547C79.9531 67.0402 78.7044 65.8125 77.1641 65.8125C75.6237 65.8125 74.375 67.0402 74.375 68.5547V70.3828C74.375 71.8973 75.6237 73.125 77.1641 73.125C78.7044 73.125 79.9531 71.8973 79.9531 70.3828V68.5547Z" fill="#1B0B47"/>
<path d="M51.1328 71.2969H47.4141C45.8737 71.2969 44.625 72.5246 44.625 74.0391C44.625 75.5535 45.8737 76.7812 47.4141 76.7812H51.1328C52.6732 76.7812 53.9219 75.5535 53.9219 74.0391C53.9219 72.5246 52.6732 71.2969 51.1328 71.2969Z" fill="#FF859B"/>
<path d="M84.6016 71.2969H82.7422C81.2018 71.2969 79.9531 72.5246 79.9531 74.0391C79.9531 75.5535 81.2018 76.7812 82.7422 76.7812H84.6016C86.1419 76.7812 87.3906 75.5535 87.3906 74.0391C87.3906 72.5246 86.1419 71.2969 84.6016 71.2969Z" fill="#FF859B"/>
</g>
<defs>
<clipPath id="clip0_57_109">
<rect width="119" height="117" rx="58.5" fill="white"/>
</clipPath>
</defs>
</svg>
