<svg width="120" height="117" viewBox="0 0 120 117" fill="none" xmlns="http://www.w3.org/2000/svg">
<g clip-path="url(#clip0_57_129)">
<path d="M120 58.5C120 26.1913 93.1371 0 60 0C26.8629 0 0 26.1913 0 58.5C0 90.8087 26.8629 117 60 117C93.1371 117 120 90.8087 120 58.5Z" fill="#68DBF2"/>
<path d="M33.75 76.7812C38.9277 76.7812 43.125 72.6889 43.125 67.6406C43.125 62.5924 38.9277 58.5 33.75 58.5C28.5723 58.5 24.375 62.5924 24.375 67.6406C24.375 72.6889 28.5723 76.7812 33.75 76.7812Z" fill="#EAC0B3"/>
<path d="M33.75 74.9531H65.625V120.419C65.625 120.419 58.7944 124.312 49.6875 124.312C40.5806 124.312 33.75 117.956 33.75 117.956V74.9531Z" fill="#EAC0B3"/>
<path d="M65.2703 97.0954C65.2703 106.94 63.6391 106.007 53.021 106.007C42.4028 106.007 37.5035 98.0277 37.5035 88.1833C37.5035 78.3406 37.1003 69.4688 45.6691 69.4688C69.8997 70.3389 65.2703 87.2509 65.2703 97.0954Z" fill="#C99688"/>
<path d="M86.036 65.9953C86.036 82.3058 83.4373 102.362 62.8123 102.362C42.1873 102.362 32.6773 82.3058 32.6773 65.9953C28.1248 46.6172 29.0623 23.7656 59.9998 23.7656C90.9373 23.7656 86.036 49.6829 86.036 65.9953Z" fill="#F5D0C5"/>
<path d="M71.25 74.9531H69.375C68.3395 74.9531 67.5 75.7716 67.5 76.7812C67.5 77.7909 68.3395 78.6094 69.375 78.6094H71.25C72.2855 78.6094 73.125 77.7909 73.125 76.7812C73.125 75.7716 72.2855 74.9531 71.25 74.9531Z" fill="#EAC0B3"/>
<path d="M71.25 109.688H30C20.6802 109.688 13.125 117.054 13.125 126.141V135.281C13.125 144.368 20.6802 151.734 30 151.734H71.25C80.5698 151.734 88.125 144.368 88.125 135.281V126.141C88.125 117.054 80.5698 109.688 71.25 109.688Z" fill="#E05A33"/>
<path fill-rule="evenodd" clip-rule="evenodd" d="M54.3094 47.8988C64.8282 51.3046 79.4138 56.0248 94.6876 41.1329C102.188 33.8204 68.4376 2.74223 41.2501 20.1094C20.0007 23.1788 21.2138 35.5936 22.1513 45.173C22.3313 47.0066 22.5001 48.7342 22.5001 50.2735C22.5001 51.2479 22.6313 51.9773 22.8751 52.5001C22.6226 54.4906 22.4974 56.4944 22.5001 58.5001C22.5001 60.4394 23.2902 62.2994 24.6968 63.6708C26.1033 65.0421 28.0109 65.8126 30.0001 65.8126C31.9892 65.8126 33.8968 65.0421 35.3034 63.6708C36.7099 62.2994 37.5001 60.4394 37.5001 58.5001C38.6451 58.5002 39.775 58.2447 40.8031 57.7532C41.8312 57.2617 42.7302 56.5472 43.4312 55.6644C44.1322 54.7817 44.6166 53.7542 44.8473 52.6606C45.078 51.5671 45.0488 50.4366 44.7619 49.3558L45.0001 49.3594C47.2951 49.3594 49.3482 48.354 50.7244 46.7726C51.8569 47.1053 53.0551 47.4929 54.3094 47.8988Z" fill="#1B0B47"/>
<path d="M56.7544 74.1085C61.1751 74.1085 64.7587 70.6144 64.7587 66.3043C64.7587 61.9941 61.1751 58.5 56.7544 58.5C52.3337 58.5 48.75 61.9941 48.75 66.3043C48.75 70.6144 52.3337 74.1085 56.7544 74.1085Z" stroke="black" stroke-width="2"/>
<path d="M83.0044 74.1085C87.4251 74.1085 91.0087 70.6144 91.0087 66.3043C91.0087 61.9941 87.4251 58.5 83.0044 58.5C78.5837 58.5 75 61.9941 75 66.3043C75 70.6144 78.5837 74.1085 83.0044 74.1085Z" stroke="black" stroke-width="2"/>
<path d="M63.7217 64.1745L76.8467 63.9844" stroke="black" stroke-width="2"/>
<path d="M52.5 84.0938C52.5 82.6392 53.0926 81.2442 54.1475 80.2157C55.2024 79.1872 56.6332 78.6094 58.125 78.6094H75C76.4918 78.6094 77.9226 79.1872 78.9775 80.2157C80.0324 81.2442 80.625 82.6392 80.625 84.0938H52.5Z" fill="#1B0B47"/>
</g>
<defs>
<clipPath id="clip0_57_129">
<rect width="120" height="117" rx="58.5" fill="white"/>
</clipPath>
</defs>
</svg>
