<svg width="186" height="140" viewBox="0 0 186 140" fill="none" xmlns="http://www.w3.org/2000/svg">
<path opacity="0.2" d="M109.183 117.672L108.416 117.605C108.061 117.587 107.725 117.469 107.469 117.272C107.213 117.074 107.053 116.81 107.019 116.528C106.602 113.013 102.8 110.542 97.8459 110.093C93.3885 109.694 88.2556 111.264 84.8864 113.951C84.467 114.305 83.9548 114.582 83.3863 114.761C82.8178 114.941 82.2067 115.018 81.5965 114.988L77.8021 114.656C77.2803 114.622 76.7859 114.455 76.3918 114.18C75.9977 113.906 75.7247 113.537 75.613 113.129C74.7206 110.057 71.2681 107.719 66.8065 107.32C61.857 106.878 56.2863 108.514 52.9922 111.696C52.7312 111.953 52.3963 112.156 52.016 112.288C51.6357 112.42 51.2211 112.477 50.8073 112.454L50.0442 112.384C49.8639 112.376 49.6851 112.415 49.5347 112.495C49.3843 112.574 49.2705 112.691 49.2103 112.827L48.5806 114.293C48.5291 114.39 48.5278 114.5 48.577 114.597C48.6262 114.695 48.722 114.773 48.8433 114.815L49.7106 115.148C50.0453 115.282 50.3114 115.504 50.4634 115.777C50.6155 116.05 50.6442 116.356 50.5446 116.644C49.1644 121.403 52.6294 125.526 58.7548 126.071C64.6508 126.6 71.0263 123.624 73.8575 119.248C74.0942 118.894 74.4371 118.593 74.8554 118.37C75.2738 118.148 75.7547 118.012 76.2551 117.974C77.6065 117.884 78.9671 117.997 80.2664 118.307C80.6822 118.405 81.0365 118.624 81.2583 118.921C81.4802 119.218 81.5533 119.571 81.4631 119.91C80.4457 124.459 83.8857 128.322 89.8025 128.851C95.9195 129.4 102.545 126.191 105.21 121.536C105.402 121.219 105.684 120.942 106.033 120.727C106.381 120.511 106.787 120.362 107.219 120.292L108.308 120.122C108.459 120.104 108.602 120.053 108.721 119.976C108.839 119.899 108.93 119.798 108.983 119.683L109.613 118.217C109.643 118.159 109.655 118.096 109.648 118.033C109.642 117.97 109.616 117.909 109.574 117.856C109.532 117.803 109.475 117.758 109.407 117.726C109.339 117.694 109.262 117.675 109.183 117.672ZM59.276 124.841C53.5926 124.332 50.5404 120.265 52.471 115.773C54.4016 111.28 60.5936 108.045 66.277 108.554C71.9603 109.062 75.0334 113.129 73.0861 117.618C71.1389 122.108 64.9593 125.366 59.276 124.841ZM74.975 116.884C75.0542 116.624 75.1209 116.365 75.171 116.109C75.2014 116.003 75.278 115.909 75.3872 115.844C75.4964 115.778 75.6311 115.746 75.7672 115.753L82.5722 116.361C82.6324 116.366 82.6901 116.383 82.7396 116.411C82.7891 116.438 82.8289 116.476 82.8549 116.519C82.8809 116.563 82.8924 116.611 82.8881 116.659C82.8839 116.707 82.8641 116.754 82.8308 116.794C82.6681 117.036 82.518 117.283 82.3763 117.535C79.6326 116.451 76.6054 116.647 74.975 116.884ZM90.3196 127.621C84.6363 127.112 81.5632 123.045 83.5104 118.553C85.4577 114.06 91.6372 110.825 97.3206 111.334C103.004 111.842 106.056 115.909 104.126 120.398C102.195 124.887 96.0029 128.13 90.3196 127.621Z" fill="black" fill-opacity="0.7"/>
<path d="M104.146 117.938L60.0141 116.458C58.9722 116.423 57.9329 116.563 56.9632 116.869C55.9936 117.175 55.1152 117.64 54.385 118.233L46.4625 124.671C46.3896 124.731 46.3345 124.804 46.3014 124.883C46.2683 124.963 46.258 125.047 46.2712 125.13C46.2844 125.213 46.3208 125.292 46.3777 125.363C46.4347 125.433 46.5106 125.492 46.6001 125.536C46.9937 125.721 47.4537 125.796 47.9069 125.749C48.3601 125.702 48.7807 125.536 49.1019 125.276L56.4573 119.331C56.8945 118.977 57.4188 118.699 57.9972 118.515C58.5756 118.331 59.1956 118.244 59.8181 118.26L104.017 119.424L104.146 117.938Z" fill="#263238"/>
<path d="M45.3286 112.68L88.9523 118.194C89.9823 118.325 90.9664 118.627 91.8412 119.08C92.7159 119.533 93.4619 120.127 94.031 120.824L100.202 128.386C100.26 128.455 100.297 128.535 100.311 128.618C100.325 128.7 100.315 128.785 100.281 128.864C100.248 128.943 100.192 129.015 100.118 129.075C100.045 129.134 99.955 129.179 99.8561 129.207C99.4231 129.33 98.9507 129.334 98.515 129.216C98.0793 129.099 97.7057 128.869 97.4543 128.562L91.7502 121.579C91.4101 121.163 90.9655 120.808 90.4444 120.536C89.9233 120.264 89.3371 120.081 88.7229 119.999L45.1201 114.16L45.3286 112.68Z" fill="#263238"/>
<path d="M71.2055 118.579C71.7226 118.732 71.0596 121.639 69.6294 122.467C68.1992 123.295 67.4861 120.708 67.9907 119.893C68.4952 119.078 69.5835 118.091 71.2055 118.579Z" fill="#757575" stroke="#263238" stroke-linecap="round" stroke-linejoin="round"/>
<path d="M78.8445 119.261C78.2983 119.321 78.1398 122.271 79.3032 123.331C80.4665 124.392 81.8842 122.001 81.6174 121.113C81.3505 120.225 80.5624 119.072 78.8445 119.261Z" fill="#757575" stroke="#263238" stroke-linecap="round" stroke-linejoin="round"/>
<path opacity="0.4" d="M53.3218 109.033C55.9362 107.799 61.336 105.83 66.0561 109.082C70.7762 112.335 71.998 115.317 70.1007 118.872C68.2035 122.427 63.7919 126.903 56.1614 124.947C48.5308 122.992 45.1991 112.863 53.3218 109.033Z" fill="white"/>
<path opacity="0.4" d="M84.336 112.138C86.9546 110.905 92.3502 108.936 97.0704 112.188C101.79 115.44 103.016 118.42 101.115 121.978C99.2136 125.536 94.8187 130.022 87.1756 128.05C79.5325 126.078 76.2092 115.969 84.336 112.138Z" fill="white"/>
<path d="M105.164 117.532L104.397 117.462C104.017 117.431 103.656 117.311 103.36 117.119C103.064 116.926 102.844 116.669 102.729 116.378C101.353 112.83 96.9538 110.336 92.0043 109.894C87.5469 109.492 82.9727 111.081 80.4375 113.798C80.1081 114.16 79.6653 114.448 79.1532 114.632C78.6411 114.816 78.0776 114.889 77.5187 114.845L73.7201 114.513C73.1624 114.457 72.633 114.285 72.1845 114.015C71.736 113.745 71.3842 113.386 71.164 112.973C70.2288 111.387 68.8019 110.017 67.018 108.993C65.2341 107.969 63.1522 107.324 60.9691 107.121C56.0196 106.675 51.0368 108.331 48.7101 111.547C48.5174 111.809 48.2331 112.021 47.8917 112.157C47.5503 112.293 47.1668 112.347 46.7878 112.311L46.0248 112.242C45.8578 112.227 45.6902 112.265 45.5588 112.349C45.4275 112.432 45.3431 112.554 45.3243 112.687L45.1158 114.167C45.1009 114.28 45.134 114.393 45.2096 114.489C45.2852 114.585 45.399 114.657 45.5327 114.696L46.4751 115.045C46.8395 115.176 47.1488 115.388 47.3661 115.656C47.5835 115.924 47.6997 116.236 47.701 116.554C47.689 118.861 48.7264 121.093 50.6206 122.836C52.5148 124.579 55.1374 125.715 58.0019 126.033C60.8665 126.351 63.7786 125.83 66.1982 124.567C68.6178 123.303 70.3807 121.383 71.1599 119.161C71.2863 118.811 71.5443 118.5 71.8992 118.27C72.254 118.04 72.6886 117.902 73.1447 117.875C74.4933 117.787 75.8505 117.9 77.1476 118.207C77.5908 118.313 77.9827 118.525 78.2704 118.814C78.5582 119.103 78.728 119.455 78.7571 119.823C78.8937 122.129 80.0747 124.316 82.0809 125.98C84.0871 127.643 86.7822 128.67 89.6656 128.868C92.549 129.067 95.4249 128.424 97.7591 127.06C100.093 125.696 101.727 123.702 102.358 121.449C102.447 121.138 102.647 120.855 102.933 120.632C103.219 120.409 103.58 120.256 103.971 120.192L104.989 120.019C105.127 120.003 105.254 119.95 105.351 119.871C105.448 119.791 105.51 119.688 105.527 119.577L105.735 118.097C105.746 118.03 105.739 117.962 105.716 117.897C105.692 117.832 105.653 117.771 105.6 117.718C105.546 117.665 105.48 117.622 105.406 117.59C105.331 117.558 105.249 117.538 105.164 117.532ZM58.4631 124.804C56.424 124.622 54.4987 123.961 52.9304 122.906C51.3622 121.851 50.2215 120.449 49.6527 118.877C49.0838 117.304 49.1123 115.633 49.7345 114.074C50.3568 112.515 51.5448 111.137 53.1485 110.117C54.7521 109.096 56.6993 108.477 58.7438 108.339C60.7883 108.201 62.8383 108.549 64.6345 109.34C66.4308 110.131 67.8926 111.329 68.8351 112.782C69.7777 114.236 70.1586 115.879 69.9298 117.505C69.6196 119.682 68.2407 121.673 66.0948 123.041C63.9488 124.408 61.2107 125.043 58.4797 124.804H58.4631ZM71.5685 116.761C71.5685 116.498 71.5685 116.239 71.5477 115.979C71.5417 115.928 71.5504 115.877 71.5731 115.83C71.5958 115.782 71.6319 115.739 71.6787 115.705C71.7254 115.67 71.7815 115.644 71.8427 115.63C71.9038 115.615 71.9684 115.612 72.0313 115.62L78.8322 116.229C78.8963 116.231 78.9588 116.246 79.0146 116.271C79.0705 116.297 79.1183 116.332 79.1542 116.375C79.1901 116.417 79.2132 116.466 79.2218 116.516C79.2303 116.567 79.2239 116.619 79.2033 116.667C79.1115 116.91 79.0323 117.16 78.9656 117.412C76.6481 116.595 74.0708 116.367 71.5852 116.761H71.5685ZM89.4983 127.584C87.4593 127.402 85.5339 126.741 83.9657 125.686C82.3975 124.631 81.2568 123.229 80.6879 121.656C80.1191 120.084 80.1476 118.413 80.7698 116.854C81.3921 115.294 82.5801 113.917 84.1837 112.897C85.7874 111.876 87.7346 111.257 89.779 111.119C91.8235 110.981 93.8735 111.329 95.6698 112.12C97.466 112.911 98.9278 114.109 99.8704 115.562C100.813 117.016 101.194 118.659 100.965 120.285C100.655 122.461 99.2771 124.45 97.133 125.818C94.9889 127.186 92.253 127.821 89.5233 127.584H89.4983Z" fill="#003DD6" stroke="#263238" stroke-linecap="round" stroke-linejoin="round"/>
<path opacity="0.5" d="M51.579 120.867C51.579 120.867 48.6852 116.371 52.3587 112.132C55.6653 108.321 61.3737 108.633 63.8213 109.894L56.2574 117.13C57.2284 115.236 58.4531 113.433 59.9101 111.749C59.9101 111.749 53.8973 115.151 51.579 120.867Z" fill="white"/>
<path opacity="0.5" d="M82.5977 123.405C82.5977 123.405 79.7081 118.909 83.3816 114.672C86.684 110.858 92.3965 111.171 94.8442 112.431L87.2761 119.667C88.3477 116.834 90.9288 114.287 90.9288 114.287C90.9288 114.287 84.916 117.688 82.5977 123.405Z" fill="white"/>
<path opacity="0.2" d="M54.5809 88.1533C54.5809 88.1533 46.1456 96.503 45.5577 97.0284C44.9697 97.5538 45.1407 106.007 43.698 109.814C42.2552 113.622 37.2766 117.532 26.1476 136.805L24.6465 99.2564L32.8483 73.103L54.5809 88.1533Z" fill="black" fill-opacity="0.7"/>
<path d="M60.7734 87.7907C60.7734 87.7907 55.2027 67.3868 50.7994 64.8463C48.2476 63.3765 44.3989 62.8511 41.0381 63.1071C38.6072 63.29 36.4264 63.8853 35.2005 64.833C32.2483 67.0908 27.9744 68.411 25.8978 69.8774C23.8213 71.3439 24.1799 76.1954 23.0833 80.3454C21.9866 84.4953 19.9727 84.7281 19.81 88.8415C19.6474 92.9549 18.7051 105.578 15.5819 109.212C12.4588 112.847 12.5797 115.577 11.4414 119.188C10.3031 122.799 1.01709 136.067 1.01709 136.067L26.2648 139C26.2648 139 28.1036 130.767 30.2552 124.036C31.2726 120.841 32.3401 117.978 33.32 116.488C35.1829 113.613 36.7597 110.625 38.0359 107.553C40.6879 105.062 41.8429 99.7617 41.9721 95.1662L48.431 91.8775C53.4806 90.5141 60.7734 87.7907 60.7734 87.7907Z" fill="white"/>
<path opacity="0.4" d="M60.7731 87.7907C60.7731 87.7907 55.2023 67.3868 50.7991 64.8463C48.2472 63.3765 44.3986 62.8511 41.0378 63.1071C33.1737 65.079 31.289 68.7269 30.2715 69.6347C28.9164 70.8484 27.5404 77.9113 28.8789 81.9382C30.2173 85.9651 29.5835 87.4848 28.8789 89.5066C27.3027 93.989 33.2737 96.0806 33.9951 97.7133C34.7165 99.3461 35.1877 108.654 32.8151 111.799C31.5642 113.462 28.5953 121.935 30.259 124.053C31.2764 120.857 32.3439 117.994 33.3238 116.505C35.1867 113.629 36.7635 110.642 38.0397 107.569C40.6917 105.079 41.8467 99.7783 41.976 95.1828L48.4349 91.8941C53.4802 90.5141 60.7731 87.7907 60.7731 87.7907Z" fill="#003DD6"/>
<path d="M30.3924 90.687C30.3924 90.687 28.8871 89.4334 27.6445 89.4899" stroke="#263238" stroke-linecap="round" stroke-linejoin="round"/>
<path d="M33.1277 86.0816C33.1277 86.0816 31.4223 83.5877 28.958 83.1421" stroke="#263238" stroke-linecap="round" stroke-linejoin="round"/>
<path d="M29.354 71.1643C29.354 71.1643 32.8607 72.1818 33.5529 74.1571" stroke="#263238" stroke-linecap="round" stroke-linejoin="round"/>
<path d="M48.4305 91.8742C48.4305 91.8742 47.509 91.0462 47.459 90.3645" stroke="#263238" stroke-linecap="round" stroke-linejoin="round"/>
<path d="M26.2644 139C26.2644 139 30.3007 121.133 33.3195 116.504C35.1825 113.629 36.7593 110.642 38.0355 107.569C40.6874 105.079 41.8425 99.7749 41.9717 95.1794L48.4306 91.8907C53.4802 90.5307 60.773 87.8206 60.773 87.8206C60.773 87.8206 55.2023 67.4166 50.799 64.8761C46.3958 62.3356 38.1439 62.6083 35.1834 64.8761C32.2229 67.144 27.9573 68.4342 25.8807 69.9006C23.8042 71.3671 24.1628 76.2186 23.0662 80.3686C21.9695 84.5185 19.9556 84.7513 19.7929 88.8647C19.6303 92.9781 18.688 105.601 15.5648 109.235C12.4417 112.87 12.5626 115.6 11.4243 119.211C10.286 122.822 1 136.09 1 136.09" stroke="#263238" stroke-linecap="round" stroke-linejoin="round"/>
<path d="M21.7243 25.2807L20.976 19.9269C20.9638 19.8393 20.9957 19.7513 21.0647 19.6825C21.1338 19.6136 21.2343 19.5694 21.3442 19.5596L24.1829 19.3073L25.0231 25.3187L22.1844 25.5711C22.0752 25.5808 21.9656 25.5557 21.8795 25.5014C21.7933 25.447 21.7376 25.3677 21.7243 25.2807Z" fill="#003DD6" stroke="#263238" stroke-linecap="round" stroke-linejoin="round"/>
<path d="M34.6156 11.0703L41.329 10.4736C41.4389 10.4638 41.5491 10.4893 41.6355 10.5444C41.7219 10.5994 41.7773 10.6796 41.7896 10.7673L42.106 13.0311L34.5638 13.7015L34.2469 11.4344C34.2358 11.3472 34.2683 11.26 34.3374 11.1919C34.4064 11.1237 34.5064 11.08 34.6156 11.0703Z" fill="#003DD6" stroke="#263238" stroke-linecap="round" stroke-linejoin="round"/>
<path d="M43.5826 10.2831L50.296 9.68639C50.4059 9.67662 50.5162 9.70206 50.6026 9.75713C50.6889 9.8122 50.7444 9.89238 50.7566 9.98003L51.073 12.2438L43.535 12.9139L43.2186 10.6501C43.2063 10.5624 43.2382 10.4745 43.3073 10.4056C43.3763 10.3367 43.4769 10.2925 43.5868 10.2827L43.5826 10.2831Z" fill="#003DD6" stroke="#263238" stroke-linecap="round" stroke-linejoin="round"/>
<path d="M31.6848 91.0927L21.7233 19.7687C21.469 17.9505 22.1297 16.1262 23.5603 14.696C24.9909 13.2659 27.0745 12.3468 29.3539 12.1405L159.449 0.581826C160.582 0.479162 161.728 0.555647 162.824 0.806903C163.919 1.05816 164.941 1.47925 165.832 2.04606C166.723 2.61286 167.465 3.31425 168.015 4.11006C168.566 4.90586 168.914 5.78044 169.04 6.68372L179.001 78.0077C179.255 79.8288 178.592 81.6559 177.157 83.087C175.722 84.5181 173.633 85.4362 171.35 85.6392L41.2543 97.1945C40.1235 97.2953 38.9789 97.2174 37.8858 96.9653C36.7928 96.7131 35.7728 96.2916 34.8841 95.725C33.9954 95.1583 33.2554 94.4575 32.7064 93.6627C32.1575 92.8679 31.8103 91.9945 31.6848 91.0927Z" fill="#003DD6" stroke="#263238" stroke-linecap="round" stroke-linejoin="round"/>
<path d="M171.35 84.7347L41.0043 96.3134C39.0509 96.4861 37.0914 96.0332 35.5565 95.0542C34.0217 94.0753 33.0371 92.6503 32.8191 91.0927L22.8118 19.5725C22.594 18.0142 23.1613 16.4507 24.389 15.2259C25.6167 14.0011 27.4042 13.2154 29.3582 13.0417L159.721 1.46636C161.673 1.29266 163.633 1.74476 165.168 2.7232C166.703 3.70164 167.688 5.12627 167.906 6.68372L177.913 78.2039C178.02 78.9764 177.935 79.7582 177.664 80.5046C177.392 81.251 176.938 81.9474 176.328 82.5539C175.719 83.1604 174.966 83.6652 174.111 84.0394C173.257 84.4136 172.319 84.6499 171.35 84.7347Z" fill="#757575" stroke="#263238" stroke-linecap="round" stroke-linejoin="round"/>
<path d="M29.9712 55.1399C29.9831 55.1931 29.9812 55.2477 29.9656 55.3003C29.95 55.3529 29.9211 55.4024 29.8806 55.4457C29.8401 55.489 29.7889 55.5253 29.7302 55.5522C29.6715 55.5792 29.6064 55.5963 29.5391 55.6024C29.4718 55.6085 29.4036 55.6036 29.3388 55.5879C29.2739 55.5723 29.2138 55.5462 29.1621 55.5112C29.1103 55.4763 29.0682 55.4333 29.0381 55.3849C29.008 55.3365 28.9907 55.2837 28.9872 55.2297C28.9753 55.1765 28.9772 55.1219 28.9928 55.0693C29.0084 55.0167 29.0373 54.9673 29.0778 54.9239C29.1183 54.8806 29.1695 54.8443 29.2282 54.8174C29.2869 54.7904 29.352 54.7734 29.4193 54.7672C29.4866 54.7611 29.5548 54.766 29.6196 54.7817C29.6845 54.7973 29.7446 54.8234 29.7963 54.8584C29.848 54.8933 29.8902 54.9363 29.9203 54.9847C29.9504 55.0331 29.9677 55.0859 29.9712 55.1399Z" fill="#999999" stroke="#263238" stroke-linecap="round" stroke-linejoin="round"/>
<path d="M30.9222 58.6747C30.9433 58.8231 30.9087 58.9731 30.8229 59.1058C30.7371 59.2385 30.6038 59.3479 30.44 59.4202C30.2762 59.4925 30.0891 59.5244 29.9026 59.5119C29.716 59.4994 29.5383 59.4431 29.3918 59.3501C29.2454 59.257 29.1369 59.1314 29.08 58.9892C29.023 58.8469 29.0203 58.6944 29.0721 58.5509C29.1239 58.4075 29.2278 58.2794 29.3709 58.1831C29.5139 58.0867 29.6895 58.0264 29.8756 58.0096C30.1249 57.9872 30.3753 58.0447 30.5715 58.1694C30.7678 58.2941 30.8939 58.4758 30.9222 58.6747Z" fill="#263238"/>
<path d="M29.7 49.939C29.7211 50.0874 29.6866 50.2374 29.6007 50.3701C29.5149 50.5028 29.3816 50.6122 29.2178 50.6845C29.054 50.7568 28.867 50.7887 28.6804 50.7762C28.4938 50.7638 28.3161 50.7074 28.1697 50.6144C28.0232 50.5213 27.9147 50.3957 27.8578 50.2535C27.8009 50.1113 27.7981 49.9587 27.8499 49.8153C27.9017 49.6718 28.0057 49.5438 28.1487 49.4474C28.2917 49.351 28.4674 49.2907 28.6534 49.2739C28.9026 49.2524 29.1523 49.3102 29.3483 49.4348C29.5443 49.5593 29.6707 49.7405 29.7 49.939Z" fill="#263238"/>
<path d="M31.0219 61.1884C31.0418 61.3335 30.9887 61.4789 30.8741 61.5927C30.7595 61.7066 30.593 61.7794 30.4111 61.7953C30.2291 61.8112 30.0468 61.7688 29.9041 61.6774C29.7614 61.586 29.67 61.4532 29.6501 61.3081C29.6402 61.2363 29.6482 61.1636 29.6736 61.0942C29.6989 61.0249 29.7412 60.9602 29.7979 60.9038C29.9125 60.79 30.079 60.7171 30.261 60.7013C30.4429 60.6854 30.6252 60.7278 30.768 60.8192C30.9107 60.9105 31.002 61.0433 31.0219 61.1884Z" fill="#263238"/>
<path d="M37.6937 91.4485L27.5988 19.3464C27.4923 18.5775 27.7727 17.8062 28.3786 17.2021C28.9845 16.5979 29.8663 16.2103 30.8304 16.1242L161.914 4.48572C162.879 4.4007 163.846 4.62426 164.604 5.10738C165.363 5.5905 165.85 6.29373 165.959 7.06281L176.029 79.1749C176.082 79.5557 176.041 79.9411 175.907 80.3092C175.773 80.6773 175.55 81.0208 175.25 81.32C174.95 81.6192 174.579 81.8684 174.158 82.0532C173.737 82.238 173.275 82.3549 172.797 82.397L41.7133 94.0355C40.7501 94.1175 39.7855 93.891 39.0317 93.4058C38.2779 92.9207 37.7966 92.2166 37.6937 91.4485Z" fill="white"/>
<path opacity="0.3" d="M162.135 4.4626L30.6049 16.1443C30.1558 16.1836 29.7208 16.2932 29.325 16.4669C28.9292 16.6405 28.5802 16.8748 28.2982 17.1562C28.0162 17.4377 27.8066 17.7608 27.6815 18.107C27.5564 18.4532 27.5183 18.8157 27.5693 19.1736L37.6934 91.6315C37.7427 91.9897 37.8801 92.3365 38.0979 92.6522C38.3156 92.9678 38.6094 93.2461 38.9623 93.471C39.3152 93.696 39.7204 93.8631 40.1545 93.9628C40.5886 94.0626 41.0431 94.093 41.492 94.0523L173.013 82.3706C173.462 82.3309 173.897 82.221 174.293 82.0473C174.689 81.8735 175.038 81.6393 175.32 81.358C175.602 81.0767 175.812 80.7538 175.938 80.4078C176.064 80.0618 176.103 79.6994 176.053 79.3413L165.933 6.88341C165.832 6.16082 165.374 5.49997 164.662 5.04605C163.95 4.59213 163.041 4.38228 162.135 4.4626Z" fill="#003DD6"/>
<path d="M67.7158 22.1993H67.6866L67.7241 26.4324L65.5976 26.6186L63.4043 18.8674L64.9096 18.7344L66.5775 24.8496H66.6066L66.4649 18.5947L67.9535 18.4651L69.5838 24.6335H69.613L69.5296 18.3154L70.8806 18.1924V26.1431L68.8249 26.3227L67.7158 22.1993Z" fill="#263238"/>
<path d="M73.6658 21.305L75.7923 21.1188L75.9466 22.2394L73.8242 22.4289L74.1453 24.7267L76.8181 24.4906L76.9724 25.6112L72.7568 25.987L71.6602 18.136L75.8757 17.7603L76.0342 18.8809L73.3614 19.1203L73.6658 21.305Z" fill="#263238"/>
<path d="M85.1201 24.8864L83.5564 25.026L83.0894 23.6128L81.1922 23.7824L81.1255 25.2289L79.7036 25.3552L80.1831 17.3746L82.4473 17.175L85.1201 24.8864ZM81.2422 22.7116L82.7308 22.5786L81.4466 18.6748H81.4174L81.2422 22.7116Z" fill="#263238"/>
<path d="M89.0731 24.5373C88.901 24.2385 88.8073 23.9149 88.7979 23.5862L88.6227 22.3526C88.5227 21.621 88.1766 21.3816 87.4719 21.4414L86.9382 21.4913L87.3843 24.6869L85.8374 24.8232L84.7407 16.9623L87.0758 16.7561C88.6769 16.6131 89.4483 17.1452 89.6193 18.3589L89.7069 18.9741C89.8194 19.7821 89.5651 20.3275 88.9146 20.6367V20.66C89.7235 20.8495 90.0571 21.4082 90.1655 22.2262L90.3365 23.4399C90.3537 23.7657 90.4559 24.0851 90.6367 24.3777L89.0731 24.5373ZM86.442 17.9599L86.7797 20.3707L87.3843 20.3175C87.9639 20.2676 88.285 20.0348 88.2183 19.4064L88.1099 18.6316C88.0306 18.0696 87.7596 17.8468 87.2092 17.8934L86.442 17.9599Z" fill="#263238"/>
<path d="M92.4044 19.6424L94.5268 19.4529L94.6852 20.5735L92.5587 20.763L92.8797 23.0641L95.5525 22.8247L95.711 23.9453L91.4829 24.3211L90.3862 16.4701L94.606 16.0977L94.7603 17.2183L92.0917 17.4544L92.4044 19.6424Z" fill="#263238"/>
<path d="M100.394 23.5298L98.8469 23.6694L97.7378 15.8184L99.2848 15.6788L99.7559 19.0439L101.516 18.8877L101.074 15.5258L102.65 15.3828L103.746 23.2338L102.17 23.3735L101.699 20.0116L99.9436 20.1646L100.394 23.5298Z" fill="#263238"/>
<path d="M103.759 15.2994L105.306 15.1631L106.402 23.0141L104.855 23.1504L103.759 15.2994Z" fill="#263238"/>
<path d="M110.76 22.6153C110.589 22.3161 110.496 21.9927 110.485 21.6642L110.314 20.4306C110.214 19.7023 109.863 19.4596 109.163 19.5228L108.629 19.5693L109.075 22.7682L107.528 22.9046L106.432 15.0536L108.767 14.8474C110.368 14.7044 111.139 15.2365 111.31 16.4469L111.394 17.0654C111.506 17.8734 111.256 18.4154 110.606 18.728V18.7513C111.414 18.9408 111.752 19.5028 111.856 20.3208L112.027 21.5312C112.042 21.8574 112.144 22.1773 112.328 22.469L110.76 22.6153ZM108.133 16.0379L108.471 18.4487L109.075 18.3955C109.651 18.3423 109.976 18.1095 109.888 17.481L109.78 16.7096C109.701 16.1476 109.43 15.9215 108.879 15.9714L108.133 16.0379Z" fill="#263238"/>
<path d="M112.085 14.5445L113.632 14.4082L114.729 22.2559L113.182 22.3955L112.085 14.5445Z" fill="#263238"/>
<path d="M116.464 16.3469H116.439L117.231 22.0331L115.838 22.1561L114.742 14.3018L116.685 14.1289L118.899 18.6879H118.928L118.273 13.9892L119.649 13.8662L120.746 21.7172L119.157 21.8569L116.464 16.3469Z" fill="#263238"/>
<path d="M123.59 17.0453L125.754 16.8524L126.104 19.343C126.279 20.5967 125.591 21.3848 124.074 21.5211C122.556 21.6574 121.668 21.0057 121.492 19.7521L120.921 15.6686C120.746 14.4117 121.434 13.6236 122.952 13.4905C124.47 13.3575 125.358 14.0026 125.533 15.2596L125.641 16.0211L124.178 16.1508L124.04 15.2995C123.961 14.7409 123.623 14.5546 123.127 14.5979C122.631 14.6411 122.356 14.8805 122.435 15.4425L123.027 19.6822C123.106 20.2442 123.444 20.4171 123.936 20.3739C124.428 20.3307 124.707 20.1012 124.632 19.5392L124.428 18.0927L123.727 18.1559L123.59 17.0453Z" fill="#263238"/>
<path d="M127.301 19.3795L126.704 16.5597L126.25 13.3042L127.797 13.1646L128.251 16.44L128.452 19.2964L127.301 19.3795ZM128.698 19.8118L128.864 21.0022L127.372 21.1353L127.209 19.9448L128.698 19.8118Z" fill="#263238"/>
<path d="M116.264 80.9905L93.7053 82.9857C92.8185 83.0647 91.9208 83.0036 91.0635 82.8059C90.2063 82.6082 89.4063 82.2777 88.7093 81.8333C88.0123 81.389 87.4319 80.8394 87.0013 80.2161C86.5707 79.5928 86.2984 78.9079 86.1998 78.2006C86.1007 77.4936 86.1771 76.7779 86.4248 76.0945C86.6724 75.4111 87.0865 74.7732 87.6433 74.2174C88.2001 73.6616 88.8887 73.1987 89.6698 72.8551C90.451 72.5116 91.3093 72.2941 92.1959 72.2151L114.758 70.2199C115.645 70.1404 116.543 70.2012 117.401 70.3987C118.258 70.5963 119.058 70.9267 119.755 71.3712C120.452 71.8156 121.033 72.3653 121.463 72.9889C121.894 73.6124 122.166 74.2975 122.264 75.005C122.363 75.7123 122.287 76.4284 122.04 77.1122C121.792 77.796 121.377 78.4341 120.82 78.9901C120.263 79.546 119.574 80.0089 118.792 80.3521C118.01 80.6954 117.151 80.9123 116.264 80.9905Z" fill="#003DD6" stroke="#263238" stroke-linecap="round" stroke-linejoin="round"/>
<path d="M99.8224 79.4773L98.8092 79.5671L98.509 78.6593L97.2789 78.769L97.233 79.7067L96.3115 79.7899L96.6243 74.6091L98.092 74.4761L99.8224 79.4773ZM97.3206 78.0674L98.288 77.9809L97.454 75.4471L97.3206 78.0674Z" fill="#263238"/>
<path d="M102.741 75.3342L102.833 75.9992C102.95 76.8139 102.516 77.2994 101.515 77.3892L101.04 77.4291L101.307 79.3444L100.306 79.4342L99.5933 74.3432L101.074 74.2102C102.058 74.1171 102.612 74.5195 102.741 75.3342ZM100.698 74.9784L100.94 76.7008L101.415 76.6576C101.732 76.631 101.891 76.498 101.832 76.1356L101.728 75.3707C101.678 75.0083 101.486 74.9052 101.169 74.9351L100.698 74.9784Z" fill="#263238"/>
<path d="M106.165 75.0282L106.256 75.6933C106.369 76.508 105.94 76.9934 104.935 77.0832L104.463 77.1265L104.73 79.0385L103.725 79.1283L103.017 74.0373L104.493 73.9043C105.498 73.8245 106.048 74.2135 106.165 75.0282ZM104.122 74.6724L104.359 76.3949L104.835 76.3517C105.156 76.3251 105.31 76.1921 105.252 75.8296L105.147 75.0648C105.093 74.7023 104.905 74.6026 104.584 74.6292L104.122 74.6724Z" fill="#263238"/>
<path d="M106.452 73.728L107.457 73.6382L108.066 78.001L109.734 77.8546L109.834 78.5829L107.182 78.819L106.452 73.728Z" fill="#263238"/>
<path d="M110.393 76.8171L108.65 73.5251L109.701 73.432L110.781 75.6865L111.198 73.299L112.157 73.2158L111.364 76.7306L111.598 78.4199L110.597 78.5063L110.393 76.8171Z" fill="#263238"/>
<path d="M119.243 85.7254L92.124 88.136L92.2173 88.8036L119.336 86.393L119.243 85.7254Z" fill="#999999" stroke="#263238" stroke-linecap="round" stroke-linejoin="round"/>
<path d="M158.257 62.6649L50.374 72.245C50.374 72.245 45.6872 64.2111 48.5226 58.9971C51.358 53.783 59.9435 56.7558 63.5795 51.9176C67.2155 47.0793 63.0041 43.8737 67.007 37.2464C71.0099 30.6191 82.4808 27.0844 91.0455 29.9907C99.6101 32.897 102.508 37.2797 107.954 36.0526C113.399 34.8256 116.502 29.1859 127.293 29.5983C138.084 30.0106 140.402 42.0614 139.777 48.007C139.152 53.9526 160.667 48.6455 158.257 62.6649Z" fill="white"/>
<path d="M126.017 36.6345L125.917 35.9163L119.162 36.5181L119.362 37.9746L119.725 40.5617L126.479 39.9631L126.017 36.6345Z" fill="white"/>
<path opacity="0.2" d="M119.731 40.5131L123.987 40.1348L123.429 36.1425L119.173 36.5208L119.731 40.5131Z" fill="black"/>
<path d="M126.017 36.6345L125.917 35.9163L119.162 36.5181L119.362 37.9746L119.725 40.5617L126.479 39.9631L126.017 36.6345Z" stroke="#263238" stroke-linecap="round" stroke-linejoin="round"/>
<path d="M123.436 36.1357L123.486 36.4915" stroke="#263238" stroke-linecap="round" stroke-linejoin="round"/>
<path d="M120.112 44.9345L119.341 39.4078L122.956 37.2265L126.538 36.9072L127.555 44.2162L120.112 44.9345Z" fill="#263238"/>
<path opacity="0.2" d="M120.112 44.9344L124.136 44.5786L123.106 37.2131L119.341 39.4078L120.112 44.9344Z" fill="black"/>
<path d="M120.112 44.9345L119.341 39.4078L122.956 37.2265L126.538 36.9072L127.555 44.2162L120.112 44.9345Z" stroke="#263238" stroke-linecap="round" stroke-linejoin="round"/>
<path opacity="0.2" d="M123.277 38.437L123.49 39.9766" stroke="white" stroke-linecap="round" stroke-linejoin="round"/>
<path opacity="0.2" d="M123.619 40.8943L124.074 44.1464" stroke="white" stroke-linecap="round" stroke-linejoin="round"/>
<path d="M92.4286 61.4241L91.1108 61.5412C90.9108 61.559 90.7101 61.5127 90.5529 61.4125C90.3957 61.3122 90.2948 61.1663 90.2725 61.0068L89.9543 58.7298L92.7764 58.4789L93.0956 60.7626C93.1155 60.9205 93.0567 61.0784 92.9319 61.2022C92.8072 61.326 92.6264 61.4056 92.4286 61.4241Z" fill="#999999" stroke="#263238" stroke-linecap="round" stroke-linejoin="round"/>
<path d="M91.3411 64.8085L93.1064 64.6516L92.6533 61.4096L90.8879 61.5665L91.3411 64.8085Z" fill="#757575" stroke="#263238" stroke-linecap="round" stroke-linejoin="round"/>
<path d="M89.6068 58.761L93.2386 58.4351L94.2352 57.105L88.2642 57.637L89.6068 58.761Z" fill="#757575" stroke="#263238" stroke-linecap="round" stroke-linejoin="round"/>
<path d="M99.8223 53.5702L94.8186 54.0125L93.1507 49.8259H92.4419L94.1098 54.1854C93.971 54.1987 93.8443 54.255 93.757 54.342C93.6697 54.4291 93.6287 54.54 93.6428 54.6509L93.7637 55.5022C93.8066 55.7804 93.985 56.0341 94.2604 56.2083C94.5358 56.3825 94.8861 56.4633 95.2356 56.4333L99.5221 56.0542C99.6875 56.0383 99.8384 55.9712 99.9422 55.8672C100.046 55.7633 100.094 55.631 100.077 55.4989L99.8223 53.5702Z" fill="#999999" stroke="#263238" stroke-linecap="round" stroke-linejoin="round"/>
<path d="M100.239 55.6651L99.985 55.685C99.8115 55.7008 99.6366 55.666 99.4926 55.5872C99.3486 55.5084 99.2451 55.3909 99.2011 55.2561L97.7375 50.6605C97.6669 50.4452 97.5103 50.2541 97.2914 50.1161C97.0724 49.9781 96.8031 49.9008 96.5241 49.8957L92.4253 49.8126C92.2731 49.8086 92.1278 49.761 92.0161 49.6785C91.9043 49.5961 91.8334 49.4844 91.8165 49.3637C91.7977 49.2314 91.8456 49.0986 91.9496 48.9945C92.0536 48.8903 92.2052 48.8234 92.3711 48.8084L92.8839 48.7651L96.9494 48.9015C97.4344 48.9169 97.8999 49.0575 98.2759 49.3022C98.6519 49.5469 98.9181 49.8824 99.0343 50.2582L100.581 55.2727C100.592 55.3165 100.592 55.3615 100.58 55.4051C100.569 55.4487 100.546 55.4901 100.515 55.5267C100.483 55.5633 100.442 55.5944 100.395 55.6182C100.347 55.642 100.294 55.6579 100.239 55.6651Z" fill="#BFBFBF"/>
<path d="M100.239 55.6651L99.985 55.685C99.8115 55.7008 99.6366 55.666 99.4926 55.5872C99.3486 55.5084 99.2451 55.3909 99.2011 55.2561L97.7375 50.6605C97.6669 50.4452 97.5103 50.2541 97.2914 50.1161C97.0724 49.9781 96.8031 49.9008 96.5241 49.8957L92.4253 49.8126C92.2731 49.8086 92.1278 49.761 92.0161 49.6785C91.9043 49.5961 91.8334 49.4844 91.8165 49.3637V49.3637C91.7977 49.2314 91.8456 49.0986 91.9496 48.9945C92.0536 48.8903 92.2052 48.8234 92.3711 48.8084L92.8839 48.7651L96.9494 48.9015C97.4344 48.9169 97.8999 49.0575 98.2759 49.3022C98.6519 49.5469 98.9181 49.8824 99.0343 50.2582L100.581 55.2727C100.592 55.3165 100.592 55.3615 100.58 55.4051C100.569 55.4487 100.546 55.4901 100.515 55.5267C100.483 55.5633 100.442 55.5944 100.395 55.6182C100.347 55.642 100.294 55.6579 100.239 55.6651" stroke="#263238" stroke-linecap="round" stroke-linejoin="round"/>
<path d="M75.4756 41.1536L81.1881 56.0376L94.0184 54.897L94.2936 53.2743L91.1579 45.0243L89.0731 39.481C88.9396 39.1325 88.659 38.8315 88.2791 38.6291C87.8991 38.4267 87.443 38.3353 86.9882 38.3704L77.0351 39.2416C76.7372 39.2665 76.4514 39.3493 76.2028 39.4826C75.9542 39.6159 75.7504 39.7958 75.609 40.0064C75.4931 40.1812 75.4216 40.3725 75.3987 40.5694C75.3758 40.7663 75.4019 40.9648 75.4756 41.1536Z" fill="#003DD6"/>
<path opacity="0.2" d="M75.4755 41.1538L81.188 56.0377L94.0183 54.8972L94.2935 53.2744L91.1579 45.0244L80.45 45.9754L78.4319 40.7248C78.3332 40.4671 78.1254 40.2447 77.8441 40.0955C77.5627 39.9464 77.2252 39.8797 76.8891 39.9068L75.6381 40.0165C75.3975 40.3636 75.3391 40.7725 75.4755 41.1538Z" fill="black"/>
<path d="M75.4756 41.1536L81.1881 56.0376L94.0184 54.897L94.2936 53.2743L91.1579 45.0243L89.0731 39.481C88.9396 39.1325 88.659 38.8315 88.2791 38.6291C87.8991 38.4267 87.443 38.3353 86.9882 38.3704L77.0351 39.2416C76.7372 39.2665 76.4514 39.3493 76.2028 39.4826C75.9542 39.6159 75.7504 39.7958 75.609 40.0064C75.4931 40.1812 75.4216 40.3725 75.3987 40.5694C75.3758 40.7663 75.4019 40.9648 75.4756 41.1536V41.1536Z" stroke="#263238" stroke-linecap="round" stroke-linejoin="round"/>
<path d="M85.6036 67.6197C88.2347 66.2231 96.3949 65.4982 99.3637 66.3993L100.615 65.9969C97.4581 64.6968 93.1091 64.6436 93.1091 64.6436L91.1952 64.8131C91.1952 64.8131 86.988 65.6245 84.2651 67.4468L85.6036 67.6197Z" fill="#999999" stroke="#263238" stroke-linecap="round" stroke-linejoin="round"/>
<path d="M99.2719 67.0076C99.3046 67.2418 99.4525 67.456 99.6832 67.6032C99.9139 67.7504 100.208 67.8184 100.502 67.7924C100.796 67.7664 101.064 67.6484 101.249 67.4645C101.433 67.2805 101.519 67.0456 101.486 66.8114C101.47 66.6955 101.425 66.5832 101.355 66.481C101.284 66.3789 101.189 66.2888 101.075 66.2159C100.961 66.143 100.83 66.0888 100.689 66.0563C100.549 66.0239 100.401 66.0138 100.256 66.0267C100.111 66.0396 99.9698 66.0751 99.8417 66.1314C99.7136 66.1877 99.6006 66.2635 99.5092 66.3546C99.4178 66.4457 99.3499 66.5503 99.3091 66.6623C99.2684 66.7743 99.2558 66.8917 99.2719 67.0076Z" fill="#BFBFBF" stroke="#263238" stroke-linecap="round" stroke-linejoin="round"/>
<path d="M83.6314 68.3978C83.6598 68.5711 83.7516 68.7338 83.8955 68.8657C84.0394 68.9975 84.2288 69.0926 84.4401 69.1389C84.6514 69.1853 84.8752 69.1809 85.0834 69.1262C85.2916 69.0716 85.4749 68.9692 85.6104 68.8318C85.7459 68.6945 85.8275 68.5283 85.8451 68.354C85.8627 68.1798 85.8154 68.0054 85.7091 67.8525C85.6029 67.6996 85.4425 67.5752 85.2479 67.4947C85.0534 67.4142 84.8334 67.3814 84.6155 67.4002C84.4683 67.4133 84.3259 67.4497 84.1965 67.5072C84.0671 67.5646 83.9533 67.642 83.8618 67.7348C83.7702 67.8276 83.7027 67.934 83.6631 68.0478C83.6236 68.1617 83.6128 68.2806 83.6314 68.3978Z" fill="#BFBFBF" stroke="#263238" stroke-linecap="round" stroke-linejoin="round"/>
<path d="M85.8166 58.2922L98.3716 57.1782C98.9103 57.1302 99.4318 56.998 99.9064 56.7892C100.381 56.5804 100.799 56.299 101.137 55.9611C101.475 55.6232 101.727 55.2355 101.877 54.8201C102.027 54.4048 102.073 53.9699 102.012 53.5403C101.995 53.4122 101.947 53.288 101.869 53.1749C101.792 53.0619 101.687 52.9622 101.561 52.8817C101.435 52.8013 101.29 52.7416 101.135 52.7063C100.98 52.6709 100.817 52.6605 100.657 52.6758L82.3098 54.3052C82.1512 54.3192 81.9977 54.3581 81.8579 54.4195C81.7182 54.481 81.595 54.5638 81.4955 54.6633C81.396 54.7627 81.322 54.8769 81.2778 54.9991C81.2337 55.1214 81.2202 55.2495 81.2382 55.3759C81.2957 55.8081 81.4601 56.2269 81.722 56.608C81.9839 56.9892 82.338 57.3251 82.7638 57.5964C83.1897 57.8676 83.6788 58.0688 84.2028 58.1882C84.7268 58.3076 85.2753 58.343 85.8166 58.2922Z" fill="#003DD6"/>
<path opacity="0.2" d="M81.2504 55.3194L81.2879 55.5888C81.4021 56.4027 81.9169 57.1471 82.7191 57.6584C83.5214 58.1698 84.5454 58.4061 85.566 58.3155L98.6173 57.155C99.1227 57.1107 99.6121 56.9874 100.058 56.792C100.503 56.5967 100.896 56.3331 101.214 56.0165C101.531 55.6999 101.767 55.3364 101.909 54.9469C102.05 54.5574 102.093 54.1495 102.036 53.7466L101.999 53.4739C101.976 53.3006 101.891 53.1364 101.753 53.0012C101.615 52.866 101.431 52.7657 101.223 52.7124L101.294 53.2145C101.334 53.505 101.228 53.7963 100.999 54.0244C100.77 54.2526 100.437 54.399 100.073 54.4316L88.4932 55.4624C88.1284 55.4942 87.7628 55.4096 87.476 55.227C87.1893 55.0444 87.0048 54.7788 86.9629 54.4881L86.8837 53.8995L82.2636 54.3085C81.9615 54.3361 81.6854 54.4579 81.4956 54.6473C81.3057 54.8367 81.2176 55.0784 81.2504 55.3194Z" fill="black"/>
<path d="M85.8166 58.2922L98.3716 57.1782C98.9103 57.1302 99.4318 56.998 99.9064 56.7892C100.381 56.5804 100.799 56.299 101.137 55.9611C101.475 55.6232 101.727 55.2355 101.877 54.8201C102.027 54.4048 102.073 53.9699 102.012 53.5403V53.5403C101.995 53.4122 101.947 53.288 101.869 53.1749C101.792 53.0619 101.687 52.9622 101.561 52.8817C101.435 52.8013 101.29 52.7416 101.135 52.7063C100.98 52.6709 100.817 52.6605 100.657 52.6758L82.3098 54.3052C82.1512 54.3192 81.9977 54.3581 81.8579 54.4195C81.7182 54.481 81.595 54.5638 81.4955 54.6633C81.396 54.7627 81.322 54.8769 81.2778 54.9991C81.2337 55.1214 81.2202 55.2495 81.2382 55.3759C81.2957 55.8081 81.4601 56.2269 81.722 56.608C81.9839 56.9892 82.338 57.3251 82.7638 57.5964C83.1897 57.8676 83.6788 58.0688 84.2028 58.1882C84.7268 58.3076 85.2753 58.343 85.8166 58.2922V58.2922Z" stroke="#263238" stroke-linecap="round" stroke-linejoin="round"/>
<path d="M85.783 54.817L80.8043 55.2593L79.1114 51.0728L78.4067 51.0562L80.0746 55.4189C80.0055 55.4247 79.9384 55.4414 79.8774 55.468C79.8164 55.4946 79.7626 55.5306 79.7192 55.5739C79.6757 55.6172 79.6435 55.6669 79.6243 55.7203C79.6052 55.7736 79.5995 55.8294 79.6076 55.8845L79.7244 56.7357C79.7652 57.0169 79.9437 57.2739 80.2209 57.4508C80.4981 57.6276 80.8516 57.71 81.2046 57.6801L85.4911 57.2977C85.5731 57.2907 85.6525 57.2708 85.7247 57.2392C85.797 57.2076 85.8608 57.1649 85.9123 57.1137C85.9638 57.0624 86.0021 57.0034 86.025 56.9403C86.0479 56.8772 86.0549 56.811 86.0457 56.7457L85.783 54.817Z" fill="#999999" stroke="#263238" stroke-linecap="round" stroke-linejoin="round"/>
<path d="M86.2211 56.9087L85.9625 56.932C85.789 56.9474 85.6143 56.9121 85.4709 56.8326C85.3275 56.7531 85.2251 56.6349 85.1828 56.4997L83.7192 51.9075C83.6476 51.6924 83.4908 51.5015 83.2722 51.3631C83.0536 51.2247 82.7848 51.1462 82.5058 51.1394L78.407 51.0563C78.2547 51.0531 78.109 51.0063 77.9964 50.9245C77.8839 50.8427 77.812 50.7313 77.794 50.6107C77.7765 50.478 77.8253 50.3452 77.93 50.2412C78.0347 50.1372 78.1866 50.0704 78.3528 50.0553L78.8615 50.0088L82.9311 50.1451C83.4164 50.1613 83.8821 50.3026 84.258 50.5478C84.634 50.7931 84.9 51.129 85.016 51.5052L86.5588 56.533C86.5729 56.5765 86.5751 56.6218 86.5652 56.6661C86.5553 56.7103 86.5336 56.7523 86.5016 56.7892C86.4695 56.8261 86.4279 56.8571 86.3795 56.88C86.3311 56.9029 86.277 56.9173 86.2211 56.922" fill="#BFBFBF"/>
<path d="M86.2211 56.9087L85.9625 56.932C85.789 56.9474 85.6143 56.9121 85.4709 56.8326C85.3275 56.7531 85.2251 56.6349 85.1828 56.4997L83.7192 51.9075C83.6476 51.6924 83.4908 51.5015 83.2722 51.3631C83.0536 51.2247 82.7848 51.1462 82.5058 51.1394L78.407 51.0563C78.2547 51.0531 78.109 51.0063 77.9964 50.9245C77.8839 50.8427 77.812 50.7313 77.794 50.6107V50.6107C77.7765 50.478 77.8253 50.3452 77.93 50.2412C78.0347 50.1372 78.1866 50.0704 78.3528 50.0553L78.8615 50.0088L82.9311 50.1451C83.4164 50.1613 83.8821 50.3026 84.258 50.5478C84.634 50.7931 84.9 51.129 85.016 51.5052L86.5588 56.533C86.5729 56.5765 86.5751 56.6218 86.5652 56.6661C86.5553 56.7103 86.5336 56.7523 86.5016 56.7892C86.4695 56.8261 86.4279 56.8571 86.3795 56.88C86.3311 56.9029 86.277 56.9173 86.2211 56.922V56.922" stroke="#263238" stroke-linecap="round" stroke-linejoin="round"/>
<path d="M95.1316 46.4906L90.4907 46.8897L90.5199 47.0892C90.5246 47.1378 90.5415 47.1851 90.5696 47.2284C90.5977 47.2716 90.6365 47.3099 90.6836 47.341C90.7307 47.372 90.7851 47.3952 90.8437 47.409C90.9023 47.4229 90.9637 47.4272 91.0244 47.4217H91.1454L106.302 46.075C106.341 46.0717 106.379 46.0622 106.413 46.0472C106.448 46.0322 106.478 46.0118 106.503 45.9874C106.527 45.963 106.545 45.9349 106.556 45.9048C106.567 45.8748 106.57 45.8433 106.565 45.8123L106.519 45.4797L95.1316 46.4906Z" fill="#999999" stroke="#263238" stroke-linecap="round" stroke-linejoin="round"/>
<path d="M109.229 38.9955L108.475 44.9811C108.459 45.106 108.39 45.2228 108.279 45.3118C108.168 45.4009 108.022 45.4567 107.866 45.4699L96.1697 46.5107C96.1002 46.5165 96.0299 46.5098 95.9641 46.4911C95.8982 46.4724 95.8385 46.4421 95.7893 46.4026C95.74 46.363 95.7026 46.3151 95.6797 46.2625C95.6567 46.2098 95.6489 46.1537 95.6568 46.0983L96.4907 40.1128C96.5078 39.9896 96.577 39.8748 96.6869 39.7871C96.7968 39.6995 96.9409 39.6443 97.0953 39.6307L108.716 38.5766C108.787 38.5699 108.858 38.5762 108.925 38.595C108.992 38.6139 109.053 38.6447 109.102 38.6852C109.152 38.7257 109.189 38.7748 109.211 38.8286C109.233 38.8824 109.239 38.9395 109.229 38.9955Z" fill="#BFBFBF" stroke="#263238" stroke-linecap="round" stroke-linejoin="round"/>
<path d="M102.799 41.8454L103.704 41.7656L104.05 42.3908L103.492 43.0924L102.587 43.1722L102.241 42.5504L102.799 41.8454Z" fill="white" stroke="#263238" stroke-linecap="round" stroke-linejoin="round"/>
<path d="M120.796 37.1999L120.696 36.4783L113.941 37.0835L114.146 38.5399L114.504 41.127L121.259 40.5251L120.796 37.1999Z" fill="white"/>
<path opacity="0.2" d="M114.466 40.885L118.743 40.5049L118.212 36.7076L113.936 37.0878L114.466 40.885Z" fill="black"/>
<path d="M120.796 37.1999L120.696 36.4783L113.941 37.0835L114.146 38.5399L114.504 41.127L121.259 40.5251L120.796 37.1999Z" stroke="#263238" stroke-linecap="round" stroke-linejoin="round"/>
<path d="M118.215 36.6978L118.266 37.0569" stroke="#263238" stroke-linecap="round" stroke-linejoin="round"/>
<path d="M114.892 45.4999L114.121 39.9699L117.736 37.7886L121.318 37.4727L122.339 44.7816L114.892 45.4999Z" fill="#003DD6"/>
<path opacity="0.2" d="M117.736 37.7886L118.757 45.1275L114.888 45.47L114.121 39.97L117.736 37.7886Z" fill="black"/>
<path d="M114.892 45.4999L114.121 39.9699L117.736 37.7886L121.318 37.4727L122.339 44.7816L114.892 45.4999Z" stroke="#263238" stroke-linecap="round" stroke-linejoin="round"/>
<path d="M118.057 38.9988L118.273 40.5384" stroke="#263238" stroke-linecap="round" stroke-linejoin="round"/>
<path d="M118.398 41.4595L118.853 44.7116" stroke="#263238" stroke-linecap="round" stroke-linejoin="round"/>
<path d="M113.207 46.5783L111.429 46.7363L114.201 66.5718L115.979 66.4138L113.207 46.5783Z" fill="#003DD6"/>
<path opacity="0.2" d="M113.207 46.5783L111.429 46.7363L114.201 66.5718L115.979 66.4138L113.207 46.5783Z" fill="black"/>
<path d="M113.207 46.5783L111.429 46.7363L114.201 66.5718L115.979 66.4138L113.207 46.5783Z" stroke="#263238" stroke-linecap="round" stroke-linejoin="round"/>
<path d="M102.295 47.5547L128.714 45.207L131.483 65.0423L129.707 65.1986L127.101 46.5272L102.458 48.7185L102.295 47.5547Z" fill="#003DD6" stroke="#263238" stroke-linecap="round" stroke-linejoin="round"/>
<path d="M123.506 44.552L84.8154 47.9904L84.9655 49.0844L129.461 45.134L129.306 44.0366L126.058 44.3259L123.506 44.552Z" fill="#003DD6"/>
<path opacity="0.6" d="M123.506 44.552L84.8154 47.9904L84.9655 49.0844L129.461 45.134L129.306 44.0366L126.058 44.3259L123.506 44.552Z" fill="white"/>
<path d="M123.506 44.552L84.8154 47.9904L84.9655 49.0844L129.461 45.134L129.306 44.0366L126.058 44.3259L123.506 44.552Z" stroke="#263238" stroke-linecap="round" stroke-linejoin="round"/>
<path d="M88.4892 68.8599L85.7163 49.0246L103.396 47.4551L106.169 67.2904L104.388 67.4467L101.782 48.7785L87.6552 50.0322L90.2655 68.7036L88.4892 68.8599Z" fill="#003DD6"/>
<path opacity="0.2" d="M88.4892 68.8599L85.7163 49.0246L103.396 47.4551L106.169 67.2904L104.388 67.4467L101.782 48.7785L87.6552 50.0322L90.2655 68.7036L88.4892 68.8599Z" fill="white"/>
<path d="M88.4892 68.8599L85.7163 49.0246L103.396 47.4551L106.169 67.2904L104.388 67.4467L101.782 48.7785L87.6552 50.0322L90.2655 68.7036L88.4892 68.8599Z" stroke="#263238" stroke-linecap="round" stroke-linejoin="round"/>
<path d="M130.558 50.3779C129.137 49.4729 127.418 48.9166 125.609 48.7766C123.799 48.6367 121.978 48.9192 120.366 49.5897C118.754 50.2602 117.422 51.2898 116.53 52.5533C115.639 53.8167 115.227 55.2596 115.346 56.7062C115.464 58.1529 116.106 59.541 117.196 60.7016C118.285 61.8622 119.774 62.7453 121.481 63.2434C123.188 63.7416 125.04 63.8333 126.811 63.5074C128.583 63.1815 130.197 62.4521 131.458 61.4078L132.872 62.309L133.948 61.2349L132.534 60.3338C133.819 58.7763 134.329 56.8922 133.964 55.0506C133.598 53.209 132.383 51.5426 130.558 50.3779ZM131.095 60.3072C130.079 61.3162 128.709 62.062 127.161 62.4503C125.612 62.8386 123.954 62.8519 122.396 62.4886C120.838 62.1252 119.45 61.4016 118.408 60.4091C117.366 59.4167 116.716 58.2 116.541 56.9131C116.366 55.6261 116.674 54.3267 117.425 53.1791C118.176 52.0316 119.337 51.0874 120.761 50.4662C122.185 49.8449 123.808 49.5744 125.425 49.6889C127.042 49.8034 128.58 50.2978 129.845 51.1094C130.685 51.6475 131.383 52.3124 131.901 53.066C132.419 53.8196 132.745 54.6473 132.861 55.5015C132.977 56.3558 132.881 57.2199 132.578 58.0445C132.275 58.8691 131.771 59.638 131.095 60.3072Z" fill="#757575" stroke="#263238" stroke-linecap="round" stroke-linejoin="round"/>
<path d="M144.676 68.9562C144.569 69.0644 144.435 69.1546 144.284 69.2216C144.133 69.2885 143.966 69.331 143.794 69.3464C143.622 69.3619 143.448 69.35 143.281 69.3116C143.115 69.2732 142.96 69.2089 142.825 69.1225L132.551 62.5717C132.522 62.5533 132.498 62.5304 132.48 62.5045C132.462 62.4786 132.451 62.4501 132.447 62.4207C132.443 62.3913 132.446 62.3616 132.457 62.3332C132.468 62.3049 132.485 62.2786 132.509 62.2558L133.802 60.9656C133.848 60.9191 133.916 60.8892 133.99 60.8824C134.064 60.8755 134.139 60.8923 134.198 60.929L144.472 67.4798C144.744 67.654 144.919 67.9074 144.957 68.1843C144.996 68.4611 144.895 68.7388 144.676 68.9562Z" fill="#999999" stroke="#263238" stroke-linecap="round" stroke-linejoin="round"/>
<path d="M75.6714 70.0004L74.4663 70.1068L69.0415 53.2709L70.2049 53.0315L75.6714 70.0004Z" fill="#999999" stroke="#263238" stroke-linecap="round" stroke-linejoin="round"/>
<path d="M74.9053 45.5036L60.4917 48.457L62.813 55.6617L77.2265 52.7082L74.9053 45.5036Z" fill="#263238"/>
<path d="M65.3306 52.2932L65.4223 52.5759C65.4592 52.6433 65.4761 52.7166 65.4717 52.7901C65.4673 52.8636 65.4417 52.9352 65.3969 52.9996C65.3522 53.0639 65.2894 53.1191 65.2135 53.161C65.1377 53.2028 65.0508 53.2302 64.9595 53.2409L64.7552 53.2808L65.0179 54.0955L64.6009 54.1853L63.9004 52.0172L64.53 51.8875C64.6162 51.8629 64.7082 51.8542 64.7992 51.8623C64.8901 51.8704 64.9776 51.8949 65.0548 51.9341C65.1321 51.9732 65.1971 52.0259 65.2449 52.0882C65.2927 52.1504 65.322 52.2205 65.3306 52.2932ZM64.4216 52.24L64.6551 52.9716L64.8594 52.9317C64.9929 52.9017 65.0512 52.8385 65.0012 52.6823L64.897 52.3497C64.8469 52.1934 64.7594 52.1602 64.6218 52.1868L64.4216 52.24Z" fill="#003DD6"/>
<path d="M65.4889 52.2435C65.4593 52.1737 65.4482 52.0998 65.4561 52.0265C65.464 51.9531 65.4908 51.8818 65.5348 51.8171C65.5788 51.7524 65.639 51.6956 65.7118 51.6503C65.7846 51.6049 65.8683 51.5721 65.9577 51.5537C66.0471 51.5354 66.1403 51.532 66.2315 51.5436C66.3226 51.5553 66.4098 51.5819 66.4875 51.6217C66.5652 51.6614 66.6318 51.7135 66.6831 51.7748C66.7344 51.836 66.7693 51.905 66.7857 51.9774L67.1484 53.1047C67.1779 53.1745 67.1891 53.2483 67.1812 53.3217C67.1733 53.3951 67.1465 53.4663 67.1025 53.5311C67.0585 53.5958 66.9983 53.6526 66.9255 53.6979C66.8527 53.7432 66.769 53.7761 66.6796 53.7944C66.5902 53.8128 66.497 53.8162 66.4058 53.8045C66.3147 53.7928 66.2275 53.7663 66.1498 53.7265C66.0721 53.6867 66.0055 53.6346 65.9542 53.5734C65.9029 53.5122 65.868 53.4432 65.8516 53.3707L65.4889 52.2435ZM66.2853 53.3042C66.3353 53.4605 66.4396 53.5004 66.5772 53.4738C66.7148 53.4472 66.7773 53.3674 66.7314 53.2144L66.352 52.0439C66.302 51.8876 66.1977 51.8477 66.0601 51.8743C65.9225 51.901 65.86 51.9808 65.91 52.1337L66.2853 53.3042Z" fill="#003DD6"/>
<path d="M67.4612 51.2592C67.5485 51.2352 67.6416 51.2273 67.7333 51.2362C67.825 51.2452 67.913 51.2706 67.9905 51.3107C68.0681 51.3507 68.1332 51.4043 68.1809 51.4674C68.2286 51.5305 68.2577 51.6014 68.266 51.6748L68.2868 51.7413L67.8698 51.8245L67.8406 51.7347C67.7906 51.5817 67.6905 51.5385 67.5571 51.5651C67.4237 51.5917 67.3611 51.6682 67.4112 51.8245C67.4612 51.9808 67.5863 52.0805 67.9282 52.2169C68.3452 52.3964 68.537 52.5494 68.6162 52.8021C68.6586 52.872 68.681 52.9486 68.6818 53.0262C68.6826 53.1039 68.6618 53.1807 68.6209 53.2512C68.58 53.3217 68.5201 53.384 68.4454 53.4338C68.3706 53.4836 68.283 53.5196 68.1888 53.5391C68.0945 53.5586 67.996 53.5613 67.9003 53.5468C67.8047 53.5324 67.7142 53.5012 67.6355 53.4555C67.5567 53.4098 67.4916 53.3508 67.4449 53.2827C67.3982 53.2145 67.371 53.139 67.3653 53.0615L67.3194 52.9285L67.7364 52.8453L67.7864 53.0016C67.8365 53.1546 67.9407 53.1945 68.0783 53.1646C68.2159 53.1346 68.2785 53.0648 68.2284 52.9085C68.1784 52.7522 68.0575 52.6525 67.7156 52.5128C67.2777 52.3366 67.1068 52.1803 67.0275 51.9309C66.9908 51.8646 66.9732 51.7926 66.9759 51.7202C66.9785 51.6478 67.0015 51.5768 67.0431 51.5124C67.0847 51.448 67.1438 51.3918 67.2162 51.348C67.2885 51.3042 67.3722 51.2738 67.4612 51.2592Z" fill="#003DD6"/>
<path d="M68.3496 51.1028L68.7666 51.0164L69.4671 53.1844L69.0501 53.2709L68.3496 51.1028Z" fill="#003DD6"/>
<path d="M68.9663 50.9764L70.2839 50.707L70.384 51.0163L69.9379 51.1094L70.5383 52.9649L70.1213 53.0547L69.5084 51.2125L69.0622 51.3023L68.9663 50.9764Z" fill="#003DD6"/>
<path d="M70.4678 50.6673L70.8847 50.5808L71.5811 52.7489L71.1641 52.8354L70.4678 50.6673Z" fill="#003DD6"/>
<path d="M71.339 51.043C71.3094 50.9733 71.2983 50.8994 71.3062 50.826C71.3141 50.7527 71.3408 50.6814 71.3848 50.6167C71.4288 50.5519 71.4891 50.4951 71.5619 50.4498C71.6347 50.4045 71.7184 50.3716 71.8078 50.3533C71.8972 50.335 71.9904 50.3315 72.0816 50.3432C72.1727 50.3549 72.2599 50.3814 72.3376 50.4212C72.4153 50.461 72.4819 50.5131 72.5332 50.5743C72.5845 50.6355 72.6194 50.7045 72.6358 50.777L72.9985 51.9043C73.028 51.974 73.0392 52.0479 73.0313 52.1213C73.0234 52.1946 72.9966 52.2659 72.9526 52.3306C72.9086 52.3954 72.8484 52.4521 72.7756 52.4975C72.7028 52.5428 72.6191 52.5756 72.5297 52.594C72.4403 52.6123 72.3471 52.6158 72.2559 52.6041C72.1648 52.5924 72.0776 52.5658 71.9999 52.5261C71.9222 52.4863 71.8556 52.4342 71.8043 52.373C71.753 52.3118 71.7181 52.2428 71.7017 52.1703L71.339 51.043ZM72.1354 52.1071C72.1854 52.2601 72.2897 52.3 72.4273 52.2734C72.5649 52.2468 72.6274 52.1703 72.5774 52.014L72.2021 50.8435C72.1521 50.6905 72.0478 50.6473 71.9102 50.6772C71.7726 50.7072 71.7101 50.7803 71.7601 50.9366L72.1354 52.1071Z" fill="#003DD6"/>
<path d="M73.324 50.7205L73.8285 52.29L73.4449 52.3698L72.7402 50.2151L73.2781 50.1053L74.1121 51.3157L73.6951 50.0189L74.0745 49.9424L74.7751 52.1105L74.3331 52.2003L73.324 50.7205Z" fill="#003DD6"/>
<path d="M67.1069 50.0953L67.257 50.0654C67.3905 50.0388 67.4864 49.9756 67.4322 49.8093L66.8984 48.1467L67.3154 48.0569L67.8408 49.6863C67.9784 50.1186 67.724 50.2915 67.403 50.3513L67.1945 50.3879L67.1069 50.0953Z" fill="#003DD6"/>
<path d="M67.753 48.5523C67.7235 48.4825 67.7123 48.4087 67.7202 48.3353C67.7281 48.2619 67.7549 48.1907 67.7989 48.1259C67.8429 48.0612 67.9032 48.0044 67.976 47.9591C68.0487 47.9138 68.1324 47.8809 68.2219 47.8626C68.3113 47.8442 68.4045 47.8408 68.4956 47.8525C68.5868 47.8642 68.6739 47.8907 68.7516 47.9305C68.8294 47.9703 68.8959 48.0224 68.9472 48.0836C68.9985 48.1448 69.0335 48.2138 69.0498 48.2863L69.4126 49.4135C69.4421 49.4833 69.4533 49.5572 69.4454 49.6305C69.4375 49.7039 69.4107 49.7752 69.3667 49.8399C69.3227 49.9046 69.2624 49.9614 69.1897 50.0067C69.1169 50.052 69.0332 50.0849 68.9438 50.1032C68.8543 50.1216 68.7611 50.125 68.67 50.1133C68.5788 50.1017 68.4917 50.0751 68.414 50.0353C68.3363 49.9956 68.2697 49.9435 68.2184 49.8822C68.1671 49.821 68.1322 49.752 68.1158 49.6796L67.753 48.5523ZM68.5494 49.6131C68.5995 49.7693 68.7037 49.8092 68.8372 49.7826C68.9706 49.756 69.0415 49.6762 68.9914 49.5233L68.6162 48.3528C68.5661 48.1965 68.4619 48.1566 68.3243 48.1832C68.1867 48.2098 68.12 48.2896 68.17 48.4426L68.5494 49.6131Z" fill="#003DD6"/>
<path d="M70.5968 47.9307L70.6218 48.0072C70.6647 48.09 70.6745 48.1815 70.6499 48.2689C70.6253 48.3564 70.5674 48.4357 70.4842 48.496C70.7385 48.5226 70.9011 48.6623 70.9512 48.8917L71.0096 49.0679C71.0475 49.1365 71.0646 49.2113 71.0595 49.2861C71.0543 49.361 71.0271 49.4338 70.9799 49.4986C70.9327 49.5635 70.867 49.6185 70.7881 49.6592C70.7092 49.7 70.6194 49.7252 70.5259 49.733L69.8545 49.8693L69.1582 47.7046L69.8003 47.5549C69.8831 47.5255 69.9735 47.5122 70.064 47.5164C70.1544 47.5205 70.2423 47.5418 70.3203 47.5786C70.3983 47.6154 70.4641 47.6666 70.5122 47.7279C70.5603 47.7891 70.5893 47.8587 70.5968 47.9307ZM69.6836 47.9307L69.8671 48.506L70.0338 48.4694C70.1965 48.4395 70.2757 48.363 70.2173 48.1901L70.1798 48.067C70.1297 47.9141 70.0422 47.8575 69.8879 47.8908L69.6836 47.9307ZM69.9671 48.8152L70.184 49.4803L70.4258 49.4304C70.5717 49.4005 70.6301 49.3306 70.5801 49.171L70.5175 48.9815C70.455 48.782 70.3507 48.7354 70.1589 48.7753L69.9671 48.8152Z" fill="#003DD6"/>
<path d="M148.954 28.3448L129.428 30.0772C129.101 30.1081 128.803 30.2402 128.598 30.445C128.393 30.6497 128.297 30.9106 128.331 31.1712L129.098 36.6546C129.137 36.9143 129.302 37.1514 129.558 37.3149C129.814 37.4785 130.14 37.5554 130.466 37.5292L132.905 37.313L131.237 40.6383L134.506 37.18L149.972 35.8067C150.298 35.7758 150.596 35.6437 150.801 35.439C151.007 35.2343 151.103 34.9734 151.068 34.7127L150.301 29.226C150.264 28.9683 150.103 28.7322 149.852 28.5677C149.6 28.4032 149.279 28.3232 148.954 28.3448Z" fill="white" stroke="#263238" stroke-linecap="round" stroke-linejoin="round"/>
<path d="M132.271 34.6128C132.226 34.5333 132.2 34.4475 132.196 34.3601L132.151 34.0276C132.126 33.8314 132.034 33.7682 131.846 33.7848H131.704L131.821 34.6361L131.404 34.6727L131.112 32.5778L131.734 32.5246C131.815 32.5053 131.9 32.5019 131.984 32.5146C132.067 32.5272 132.145 32.5556 132.211 32.5972C132.278 32.6389 132.331 32.6927 132.366 32.7541C132.401 32.8155 132.417 32.8828 132.413 32.9502L132.438 33.1165C132.464 33.1992 132.458 33.2863 132.42 33.366C132.382 33.4457 132.314 33.5141 132.226 33.562C132.442 33.6119 132.53 33.7616 132.563 33.9777L132.605 34.3102C132.611 34.3981 132.639 34.4842 132.688 34.5629L132.271 34.6128ZM131.571 32.8571L131.663 33.5022L131.821 33.4856C131.975 33.4856 132.063 33.4124 132.038 33.2428L132.009 33.0366C131.988 32.887 131.917 32.8272 131.771 32.8405L131.571 32.8571Z" fill="#263238"/>
<path d="M133.18 33.3093L133.748 33.2561L133.789 33.5553L133.222 33.6052L133.306 34.2204L134.019 34.1572L134.06 34.4565L132.934 34.5563L132.643 32.4613L133.768 32.3616L133.81 32.6609L133.097 32.724L133.18 33.3093Z" fill="#263238"/>
<path d="M134.039 32.8437C134.027 32.777 134.032 32.709 134.053 32.6438C134.075 32.5785 134.112 32.5174 134.164 32.4641C134.216 32.4107 134.281 32.3662 134.354 32.3332C134.428 32.3002 134.509 32.2794 134.594 32.2721C134.678 32.2647 134.763 32.2709 134.844 32.2903C134.925 32.3097 135 32.3419 135.065 32.3851C135.13 32.4282 135.183 32.4813 135.222 32.5412C135.261 32.6012 135.284 32.6668 135.29 32.734L135.445 33.8214C135.459 33.9224 135.445 34.0248 135.403 34.1207C135.428 34.1606 135.461 34.1639 135.528 34.1572H135.565L135.607 34.4499H135.549C135.48 34.4629 135.407 34.4594 135.34 34.4399C135.274 34.4204 135.216 34.3857 135.173 34.3401C135.084 34.3733 134.988 34.3947 134.89 34.4033C134.804 34.4167 134.715 34.4146 134.63 34.3971C134.545 34.3796 134.466 34.3472 134.399 34.3023C134.332 34.2573 134.278 34.201 134.242 34.1373C134.206 34.0737 134.188 34.0044 134.189 33.9344L134.039 32.8437ZM134.606 33.9178C134.627 34.0675 134.719 34.1173 134.848 34.104C134.978 34.0907 135.053 34.0309 135.032 33.8812L134.873 32.7506C134.852 32.601 134.765 32.5511 134.631 32.5611C134.498 32.5711 134.427 32.6376 134.448 32.7872L134.606 33.9178Z" fill="#263238"/>
<path d="M135.878 32.172L136.103 33.7881C136.124 33.9378 136.216 33.9843 136.345 33.971C136.474 33.9577 136.553 33.8979 136.533 33.7515L136.307 32.1355L136.695 32.0989L136.92 33.695C136.929 33.7605 136.922 33.8268 136.899 33.8901C136.876 33.9533 136.838 34.0124 136.786 34.0638C136.734 34.1152 136.67 34.158 136.598 34.1897C136.525 34.2214 136.446 34.2415 136.364 34.2487C136.282 34.2559 136.199 34.2501 136.119 34.2317C136.04 34.2133 135.966 34.1826 135.901 34.1414C135.837 34.1002 135.783 34.0492 135.743 33.9914C135.704 33.9337 135.679 33.8702 135.67 33.8047L135.444 32.2086L135.878 32.172Z" fill="#263238"/>
<path d="M136.975 32.0756L137.392 32.0391L137.683 34.1307L137.266 34.1672L136.975 32.0756Z" fill="#263238"/>
<path d="M138.843 34.0275C138.797 33.948 138.772 33.8621 138.768 33.7748L138.722 33.4422C138.697 33.2494 138.605 33.1829 138.417 33.1995H138.276L138.392 34.0508L137.975 34.0873L137.684 31.9957L138.305 31.9392C138.386 31.9207 138.472 31.9178 138.555 31.931C138.638 31.9441 138.716 31.9728 138.783 32.0147C138.849 32.0566 138.902 32.1105 138.937 32.172C138.972 32.2335 138.988 32.3007 138.985 32.3682L139.01 32.5311C139.036 32.6138 139.03 32.7011 138.992 32.7809C138.954 32.8607 138.886 32.9291 138.797 32.9767C139.014 33.0266 139.101 33.1762 139.135 33.3957L139.181 33.7282C139.183 33.815 139.21 33.9003 139.26 33.9776L138.843 34.0275ZM138.142 32.2751L138.234 32.9168H138.392C138.547 32.9168 138.634 32.8404 138.609 32.6741L138.58 32.4679C138.559 32.3183 138.488 32.2584 138.342 32.2717L138.142 32.2751Z" fill="#263238"/>
<path d="M139.731 32.7242L140.298 32.6743L140.34 32.9736L139.772 33.0234L139.856 33.6353L140.569 33.5721L140.611 33.8714L139.489 33.9711L139.193 31.8795L140.319 31.7798L140.36 32.0791L139.647 32.1422L139.731 32.7242Z" fill="#263238"/>
<path d="M141.649 33.1662L141.72 31.6566L142.295 31.6067L142.587 33.6983L142.195 33.7349L141.987 32.2318L141.937 33.7548L141.545 33.7914L141.04 32.3383L141.249 33.818L140.886 33.8479L140.594 31.7563L141.17 31.7064L141.649 33.1662Z" fill="#263238"/>
<path d="M143.138 32.4214L143.7 32.3716L143.742 32.6708L143.179 32.7207L143.263 33.3326L143.976 33.2694L144.017 33.5687L142.891 33.6684L142.6 31.5768L143.725 31.4771L143.767 31.7763L143.054 31.8395L143.138 32.4214Z" fill="#263238"/>
<path d="M144.439 31.9957L144.651 33.512L144.28 33.542L143.988 31.4504L144.505 31.4038L145.097 32.6209L144.922 31.3672L145.289 31.334L145.581 33.4256L145.164 33.4655L144.439 31.9957Z" fill="#263238"/>
<path d="M145.46 31.3206L146.736 31.2075L146.778 31.5068L146.361 31.5467L146.611 33.339L146.194 33.3756L145.944 31.5833L145.527 31.6199L145.46 31.3206Z" fill="#263238"/>
<path d="M147.466 31.1213C147.883 31.0847 148.099 31.2576 148.145 31.5935V31.6566L147.758 31.6932V31.6068C147.737 31.4571 147.653 31.4073 147.52 31.4172C147.386 31.4272 147.324 31.4937 147.345 31.6433C147.366 31.793 147.466 31.8994 147.762 32.0657C147.907 32.1264 148.032 32.2139 148.126 32.3209C148.221 32.4279 148.281 32.5513 148.304 32.6808C148.326 32.747 148.329 32.8162 148.313 32.8834C148.297 32.9506 148.262 33.0141 148.211 33.0693C148.16 33.1244 148.095 33.1698 148.019 33.2021C147.944 33.2345 147.86 33.2529 147.774 33.2561C147.689 33.2685 147.601 33.2655 147.517 33.2473C147.433 33.2291 147.355 33.1962 147.289 33.1509C147.223 33.1057 147.171 33.0492 147.135 32.9857C147.1 32.9222 147.084 32.8533 147.086 32.7839V32.6542L147.478 32.621L147.499 32.7706C147.52 32.9203 147.607 32.9668 147.741 32.9535C147.874 32.9402 147.945 32.8803 147.924 32.7307C147.904 32.5811 147.803 32.4713 147.507 32.3084C147.362 32.2477 147.237 32.1602 147.143 32.0532C147.049 31.9462 146.988 31.8228 146.965 31.6932C146.882 31.364 147.061 31.1545 147.466 31.1213Z" fill="#263238"/>
<path d="M44.957 72.7271L163.753 62.176" stroke="#263238" stroke-linecap="round" stroke-linejoin="round"/>
<path d="M45.8204 71.3937C45.2884 71.1998 44.7063 71.1096 44.1219 71.1304C43.5376 71.1512 42.9678 71.2825 42.4596 71.5134C41.5809 71.935 40.8931 72.5685 40.4957 73.3224C39.1072 75.6301 35.2835 80.914 34.6164 82.4303C33.9492 83.9466 32.5315 88.1398 30.9595 89.9554C29.3875 91.771 28.6328 94.4412 28.6328 94.4412L29.8837 119.78C30.5467 116.076 32.8025 111.799 32.8025 111.799C34.9698 110.77 36.7689 109.313 38.0272 107.569C38.4059 107.21 38.7409 106.822 39.0279 106.412C41.338 103.157 42.1511 97.4539 41.9467 93.0679C41.7341 88.0966 43.5896 85.7523 46.5334 81.2731C49.4773 76.794 48.0137 72.2583 45.8204 71.3937Z" fill="white"/>
<path opacity="0.4" d="M45.8205 71.3938C45.2867 71.2056 44.7056 71.1185 44.1225 71.1392C43.5395 71.16 42.9704 71.2881 42.4597 71.5135C44.2736 71.8161 46.6712 72.4379 46.2125 73.5519C45.4953 75.311 42.8308 72.8868 41.6508 73.768C40.4708 74.6492 36.3094 79.6372 39.3283 81.5991C42.3472 83.561 41.7008 87.1257 39.8203 88.2064C37.9398 89.2871 39.3783 91.5915 40.2748 95.2793C40.821 97.5105 39.8578 102.668 39.0239 106.396C41.3339 103.14 42.147 97.4374 41.9427 93.0514C41.73 88.0801 43.5856 85.7357 46.5294 81.2566C49.4732 76.7774 48.0096 72.1985 45.8205 71.3938Z" fill="#003DD6"/>
<path d="M29.8879 119.763C30.5509 116.062 32.8067 111.783 32.8067 111.783C34.9746 110.752 36.7749 109.296 38.0355 107.553C41.1003 104.67 42.1677 98.0192 41.9551 93.0512C41.7424 88.0833 43.623 85.7522 46.5418 81.2531C49.4606 76.754 48.2472 72.3114 45.8121 71.3937C44.115 70.7552 41.88 71.0146 40.4873 73.3223C39.0947 75.6301 35.2752 80.9139 34.608 82.427C33.9409 83.94 32.5232 88.1398 30.9512 89.9587C29.3792 91.7776 28.6328 94.4412 28.6328 94.4412" stroke="#263238" stroke-linecap="round" stroke-linejoin="round"/>
<path d="M37.2764 82.7495C37.2764 82.7495 39.8324 82.8127 41.0291 83.521" stroke="#263238" stroke-linecap="round" stroke-linejoin="round"/>
<path d="M27.6614 93.9557C27.6614 93.9557 27.0985 93.0246 29.6253 91.9805" stroke="#263238" stroke-linecap="round" stroke-linejoin="round"/>
<path opacity="0.2" d="M117.168 74.9751C122.264 75.0084 128.639 93.324 130.624 95.4322C130.624 95.4322 159.082 96.2137 162.668 99.3793C166.254 102.545 164.478 105.219 166.838 108.221C169.198 111.224 169.874 116.285 169.874 116.285L176.128 124.701L149.321 134.943C149.321 134.943 134.998 128.399 131.504 126.923C128.01 125.446 117.656 122.221 114.904 118.051C112.152 113.881 112.015 109.967 111.422 108.235C110.83 106.502 122.339 101.315 122.339 101.315L117.168 74.9751Z" fill="black" fill-opacity="0.7"/>
<path d="M179.698 126.365C177.387 124.662 174.961 122.853 172.963 121.357C170.416 119.448 168.569 118.055 168.569 118.055C167.051 115.514 165.716 114.66 164.036 112.655C162.356 110.649 162.614 108.535 162.218 105.735C161.822 102.935 160.4 100.524 159.529 98.8747C158.657 97.2253 158.586 95.5195 158.411 95.1504C158.236 94.7813 155.596 93.1552 154.375 91.8251C153.827 91.2321 153.157 90.7171 152.394 90.3021C151.54 89.8191 150.559 89.4994 149.525 89.3677C149.097 89.3218 148.663 89.3151 148.233 89.3477C147.383 89.4557 146.547 89.6192 145.731 89.8366C144.655 90.0427 141.936 88.9953 140.369 89.0451C140.077 89.0451 139.789 89.0784 139.497 89.1117C138.148 89.3128 136.821 89.5985 135.528 89.9663C134.114 90.2988 132.096 89.5606 130.637 89.4741H130.607C130.283 89.4459 129.954 89.4789 129.648 89.5705C128.268 90.0328 125.629 90.7377 125.629 90.7377C125.629 90.7377 124.949 89.3045 124.223 87.3193C124.098 86.9868 123.969 86.6543 123.832 86.3217C123.323 85.1113 122.768 84.0439 122.426 83.0397C122.336 82.7824 122.262 82.5216 122.205 82.2582C121.897 80.8051 121.505 79.6978 120.792 77.523L120.717 77.2903C120.492 76.6252 120.3 75.9602 120.087 75.3749C119.558 73.965 118.836 72.9874 116.997 73.1071C115.379 73.2135 114.495 74.0382 114.45 76.2195C114.404 78.4009 113.883 78.3444 114.604 81.387C115.325 84.4297 115.058 86.5046 115.638 88.0077C116.218 89.5107 116.685 92.5533 116.685 92.5533C115.88 92.4037 115.292 92.7695 115.242 93.0322C115.192 93.2949 115.359 95.7356 115.442 97.488C115.513 99.0443 114.229 100.74 113.908 101.884C113.908 101.884 113.908 101.904 113.908 101.911C113.872 102.034 113.851 102.16 113.845 102.286C113.799 103.404 114.654 105.612 115.513 108.481C116.372 111.351 116.347 114.467 117.831 116.216C118.138 116.569 118.514 116.88 118.945 117.137C120.729 118.231 123.615 118.919 126.571 120.659C130.261 122.837 132.901 124.453 135.086 124.981C136.653 125.367 137.412 125.78 137.875 126.428C138.06 126.712 138.2 127.014 138.292 127.326C138.501 127.928 139.055 128.323 139.985 128.955C141.44 129.925 142.781 130.998 143.992 132.161C145.126 133.238 147.003 135.346 148.996 137.691L179.698 126.365Z" fill="white"/>
<path opacity="0.4" d="M122.189 82.2475C122.246 82.5109 122.319 82.7717 122.41 83.029C120.017 83.1221 115.868 84.8645 116.122 85.9519C116.439 87.282 117.169 90.4244 118.207 90.9864C119.245 91.5483 121.197 91.6714 121.197 91.6714C121.067 91.7041 120.941 91.743 120.817 91.7878L120.775 91.8044C120.232 92.0121 119.78 92.3459 119.479 92.7621C118.161 94.5278 119.037 97.7167 120.071 99.1333C124.37 105.026 121.993 110.792 120.438 110.439C118.882 110.087 117.127 104.657 117.16 103.297C117.188 102.501 117.08 101.705 116.839 100.932C116.18 100.886 114.967 101.368 113.875 101.883C113.875 101.883 113.875 101.867 113.875 101.857C114.196 100.713 115.48 99.0169 115.409 97.4607C115.326 95.7083 115.155 93.2675 115.209 93.0048C115.263 92.7421 115.847 92.3763 116.652 92.526C116.652 92.526 116.18 89.4867 115.605 87.9803C115.03 86.474 115.292 84.4056 114.571 81.3597C113.849 78.3137 114.371 78.3669 114.417 76.1922C114.462 74.0175 115.346 73.1994 116.964 73.0797C118.811 72.96 119.524 73.9376 120.054 75.3476C119.804 75.235 119.545 75.1362 119.278 75.0516C118.61 74.81 117.853 74.778 117.156 74.9618C116.355 75.2112 115.83 76.0093 115.584 76.7974C115.225 77.9313 115.446 79.0486 116.264 78.4999C117.189 77.8814 119.399 77.6054 120.763 77.5023C121.505 79.6871 121.88 80.8077 122.189 82.2475Z" fill="#003DD6"/>
<path opacity="0.4" d="M138.288 127.332C138.197 127.021 138.057 126.72 137.871 126.437C137.408 125.789 136.649 125.377 135.081 124.991C132.896 124.449 130.257 122.833 126.567 120.668C123.611 118.929 120.729 118.241 118.94 117.146C120.9 117.565 123.144 116.731 124.24 117.775C125.833 119.281 131.683 120.907 131.683 120.907C137.767 123.857 138.288 127.332 138.288 127.332Z" fill="#003DD6"/>
<path opacity="0.4" d="M130.595 89.4534C129.986 89.4534 129.344 92.8751 129.515 94.009C129.978 96.9386 134.456 105.398 132.017 105.648C131.012 105.754 128.635 101.857 127.989 99.9546C126.033 94.1686 125.599 91.6913 125.599 91.6913C125.599 91.6913 124.111 88.5655 123.802 86.301C123.94 86.6336 124.069 86.9661 124.194 87.2986C124.92 89.2938 125.599 90.717 125.599 90.717C125.599 90.717 128.239 90.012 129.619 89.5498C129.93 89.4561 130.264 89.423 130.595 89.4534Z" fill="#003DD6"/>
<path opacity="0.4" d="M139.485 89.1211C138.234 89.4536 137.254 90.6939 136.266 91.0697C135.056 91.5319 132.033 89.6897 130.624 89.4835C132.083 89.57 134.102 90.3215 135.515 89.9757C136.808 89.608 138.135 89.3222 139.485 89.1211Z" fill="#003DD6"/>
<path opacity="0.4" d="M148.224 89.337C147.783 90.0873 147.486 90.8867 147.345 91.708C147.111 94.5478 151.097 104.371 148.937 103.047C146.144 101.328 146.177 93.5169 143.767 90.9964C142.996 90.1883 140.79 89.0843 140.369 89.0344C141.936 88.9846 144.655 90.032 145.731 89.8259C146.544 89.6089 147.378 89.4454 148.224 89.337Z" fill="#003DD6"/>
<path opacity="0.4" d="M172.955 121.343C170.824 120.152 168.623 119.048 167.322 118.716C164.128 117.938 162.918 116.721 161.997 114.503C161.075 112.285 161.813 112.195 161.997 109.791C162.18 107.387 159.77 104.909 160.07 105.488C160.371 106.067 160.296 110.476 159.387 110.858C158.478 111.241 157.302 108.514 156.501 106.253C155.701 103.992 154.07 93.0746 153.011 91.0795C152.864 90.7879 152.658 90.5173 152.402 90.2781C153.165 90.6931 153.835 91.208 154.383 91.8011C155.605 93.1312 158.244 94.7506 158.419 95.1263C158.594 95.5021 158.661 97.2013 159.537 98.8506C160.412 100.5 161.83 102.907 162.226 105.711C162.622 108.514 162.372 110.629 164.044 112.631C165.716 114.632 167.059 115.49 168.577 118.031C168.56 118.051 170.407 119.434 172.955 121.343Z" fill="#003DD6"/>
<path opacity="0.4" d="M138.421 95.2827C139.218 95.695 141.715 102.598 142.591 104.261C143.467 105.924 143.584 110.246 142.57 109.116C141.557 107.985 135.173 93.6034 138.421 95.2827Z" fill="#003DD6"/>
<path d="M148.237 136.805C146.527 134.827 144.976 133.104 143.988 132.167C142.776 131.004 141.435 129.931 139.981 128.961C139.051 128.323 138.496 127.934 138.288 127.332C138.196 127.021 138.056 126.72 137.871 126.437C137.408 125.789 136.649 125.376 135.081 124.991C132.896 124.449 130.257 122.833 126.567 120.668C123.61 118.929 120.729 118.24 118.94 117.146C118.51 116.889 118.134 116.578 117.827 116.225C116.355 114.489 116.367 111.354 115.509 108.491C114.65 105.628 113.795 103.413 113.841 102.296C113.846 102.169 113.867 102.043 113.903 101.92C113.903 101.92 113.903 101.903 113.903 101.893C114.224 100.749 115.509 99.0535 115.438 97.4973C115.354 95.7449 115.183 93.3041 115.237 93.0414C115.292 92.7787 115.875 92.413 116.68 92.5626C116.68 92.5626 116.209 89.5233 115.634 88.0169C115.058 86.5106 115.321 84.4423 114.6 81.3963C113.878 78.3503 114.399 78.4036 114.445 76.2288C114.491 74.0541 115.375 73.2361 116.993 73.1164C118.84 72.9966 119.553 73.9743 120.083 75.3842C120.304 75.9661 120.5 76.6212 120.712 77.2996L120.787 77.5323C121.5 79.7071 121.892 80.8144 122.201 82.2675C122.258 82.5309 122.331 82.7917 122.422 83.049C122.764 84.0465 123.318 85.1206 123.827 86.331C123.965 86.6635 124.094 86.9961 124.219 87.3286C124.945 89.3238 125.624 90.747 125.624 90.747C125.624 90.747 128.264 90.042 129.644 89.5798C129.95 89.4882 130.278 89.4552 130.603 89.4834H130.632C132.092 89.5698 134.11 90.3214 135.523 89.9755C136.816 89.6078 138.143 89.322 139.493 89.1209V89.1209C139.785 89.0877 140.072 89.0644 140.364 89.0544C141.932 89.0045 144.651 90.052 145.727 89.8458C146.542 89.6285 147.379 89.465 148.228 89.357C148.659 89.3244 149.092 89.331 149.521 89.377C150.554 89.5087 151.536 89.8284 152.39 90.3114C153.153 90.7264 153.822 91.2413 154.37 91.8344C155.592 93.1645 158.232 94.7839 158.407 95.1596C158.582 95.5354 158.648 97.2346 159.524 98.8839C160.4 100.533 161.817 102.941 162.214 105.744C162.61 108.547 162.36 110.662 164.032 112.664C165.704 114.666 167.046 115.524 168.564 118.064C168.564 118.064 170.411 119.457 172.959 121.366C174.731 122.696 176.841 124.266 178.905 125.792" stroke="#263238" stroke-linecap="round" stroke-linejoin="round"/>
<path d="M116.664 92.5393C117.294 94.6409 117.836 97.2978 117.761 98.4583C117.686 99.6188 119.045 103.194 118.77 104.863" stroke="#263238" stroke-linecap="round" stroke-linejoin="round"/>
<path d="M118.52 93.936C118.52 93.936 119.858 91.9408 121.217 91.6714C122.577 91.4021 124.136 91.8543 125.616 91.708C127.097 91.5617 128.335 90.4311 129.653 89.9656" stroke="#263238" stroke-linecap="round" stroke-linejoin="round"/>
<path d="M117.26 86.0782C117.26 86.0782 119.516 84.8844 121.013 85.36" stroke="#263238" stroke-linecap="round" stroke-linejoin="round"/>
<path d="M118.857 84.7979C119.477 84.593 120.167 84.5613 120.813 84.7082" stroke="#263238" stroke-linecap="round" stroke-linejoin="round"/>
<path d="M116.668 79.8103C117.458 79.5028 118.324 79.3381 119.203 79.3281" stroke="#263238" stroke-linecap="round" stroke-linejoin="round"/>
<path d="M113.891 101.87C114.52 101.446 115.2 101.074 115.922 100.759" stroke="#263238" stroke-linecap="round" stroke-linejoin="round"/>
<path d="M118.669 103.024C118.382 103.663 118.178 104.324 118.061 104.996" stroke="#263238" stroke-linecap="round" stroke-linejoin="round"/>
<path d="M115.121 74.6592C115.121 74.6592 115.467 77.1631 115.913 77.3194C116.359 77.4757 119.378 77.1033 119.491 76.6377C119.604 76.1722 119.116 74.3832 119.116 74.3832C119.116 74.3832 116.622 72.285 115.121 74.6592Z" stroke="#263238" stroke-linecap="round" stroke-linejoin="round"/>
<path d="M115.421 97.474C115.421 97.474 117.573 96.0208 117.21 94.6009C116.847 93.181 116.13 93.3307 115.217 93.4969" stroke="#263238" stroke-linecap="round" stroke-linejoin="round"/>
<path d="M154.566 93.394C155.317 95.6054 156.464 102.253 156.651 103.224C156.839 104.195 157.669 106.622 157.669 106.622" stroke="#263238" stroke-linecap="round" stroke-linejoin="round"/>
<path d="M135.553 91.6282C139.105 94.1853 136.12 93.5269 142.174 107.806" stroke="#263238" stroke-linecap="round" stroke-linejoin="round"/>
<path d="M168.56 118.051C168.56 118.051 165.791 117.053 165.145 116.298" stroke="#263238" stroke-linecap="round" stroke-linejoin="round"/>
<path d="M135.757 123.568C136.733 124.362 137.787 126.308 137.842 126.427" stroke="#263238" stroke-linecap="round" stroke-linejoin="round"/>
</svg>
