<svg width="80" height="80" viewBox="0 0 80 80" fill="none" xmlns="http://www.w3.org/2000/svg">
<circle cx="40" cy="40" r="40" fill="#07A917" fill-opacity="0.1"/>
<path d="M55.5039 38.5735V39.9998C55.5019 43.3431 54.4194 46.5962 52.4175 49.274C50.4157 51.9517 47.602 53.9106 44.3959 54.8586C41.1898 55.8065 37.7632 55.6927 34.6271 54.534C31.4909 53.3754 28.8134 51.2341 26.9937 48.4294C25.174 45.6247 24.3097 42.3069 24.5297 38.9708C24.7497 35.6348 26.0422 32.4592 28.2144 29.9178C30.3866 27.3763 33.3221 25.6051 36.5832 24.8683C39.8443 24.1315 43.2562 24.4686 46.3101 25.8293" stroke="#07A917" stroke-width="4" stroke-linecap="round" stroke-linejoin="round"/>
<path d="M55.5039 27.5969L40 43.1163L35.3488 38.4651" stroke="#07A917" stroke-width="4" stroke-linecap="round" stroke-linejoin="round"/>
</svg>
