<svg width="26" height="27" viewBox="0 0 26 27" fill="none" xmlns="http://www.w3.org/2000/svg">
<path d="M24.0775 0.000188769H1.92254C1.67349 -0.00338142 1.42621 0.0437223 1.1948 0.13881C0.9634 0.233898 0.752409 0.375106 0.57388 0.554372C0.395351 0.733638 0.252783 0.947449 0.154315 1.1836C0.0558482 1.41974 0.00341138 1.6736 0 1.93066V25.0693C0.00341138 25.3264 0.0558482 25.5803 0.154315 25.8164C0.252783 26.0525 0.395351 26.2664 0.57388 26.4456C0.752409 26.6249 0.9634 26.7661 1.1948 26.8612C1.42621 26.9563 1.67349 27.0034 1.92254 26.9998H24.0775C24.3265 27.0034 24.5738 26.9563 24.8052 26.8612C25.0366 26.7661 25.2476 26.6249 25.4261 26.4456C25.6046 26.2664 25.7472 26.0525 25.8457 25.8164C25.9442 25.5803 25.9966 25.3264 26 25.0693V1.93066C25.9966 1.6736 25.9442 1.41974 25.8457 1.1836C25.7472 0.947449 25.6046 0.733638 25.4261 0.554372C25.2476 0.375106 25.0366 0.233898 24.8052 0.13881C24.5738 0.0437223 24.3265 -0.00338142 24.0775 0.000188769ZM7.88632 22.5989H3.96278V10.449H7.88632V22.5989ZM5.92455 8.74806C5.38344 8.74806 4.8645 8.52619 4.48188 8.13124C4.09926 7.7363 3.88431 7.20063 3.88431 6.6421C3.88431 6.08356 4.09926 5.5479 4.48188 5.15295C4.8645 4.758 5.38344 4.53613 5.92455 4.53613C6.21188 4.50249 6.50285 4.53188 6.77841 4.62237C7.05397 4.71285 7.30791 4.8624 7.5236 5.06122C7.73928 5.26003 7.91185 5.50363 8.03001 5.77606C8.14817 6.04849 8.20925 6.34361 8.20925 6.6421C8.20925 6.94058 8.14817 7.2357 8.03001 7.50813C7.91185 7.78056 7.73928 8.02416 7.5236 8.22298C7.30791 8.42179 7.05397 8.57134 6.77841 8.66183C6.50285 8.75231 6.21188 8.7817 5.92455 8.74806ZM22.0372 22.5989H18.1137V16.0785C18.1137 14.445 17.5513 13.3785 16.1258 13.3785C15.6846 13.3818 15.255 13.5247 14.8949 13.7878C14.5347 14.0509 14.2614 14.4216 14.1117 14.85C14.0093 15.1673 13.965 15.5014 13.9809 15.8355V22.5854H10.0573C10.0573 22.5854 10.0573 11.5425 10.0573 10.4355H13.9809V12.15C14.3373 11.5116 14.8557 10.9857 15.4803 10.6289C16.1048 10.272 16.8118 10.0978 17.5252 10.125C20.1408 10.125 22.0372 11.8665 22.0372 15.606V22.5989Z" fill="#003DD6"/>
</svg>
